<svg id="Layer_1" data-name="Layer 1" xmlns="http://www.w3.org/2000/svg" viewBox="0 0 279 139"><defs><style>.cls-1{fill:#175f9a;}.cls-2{fill:#41b981;}.cls-3{fill:#0162a1;}</style></defs><title>Artboard 19</title><path class="cls-1" d="M23.88,92.84a5,5,0,0,1-.81,2.8,5.3,5.3,0,0,1-2.35,1.94,8.77,8.77,0,0,1-3.67.71,8.15,8.15,0,0,1-4.19-1A5.49,5.49,0,0,1,11,95.48a4.2,4.2,0,0,1-.74-2.25,1.52,1.52,0,0,1,1.56-1.53,1.33,1.33,0,0,1,.93.35,2.73,2.73,0,0,1,.65,1,7.35,7.35,0,0,0,.71,1.38,2.89,2.89,0,0,0,1.07.9,4,4,0,0,0,1.82.36A4.08,4.08,0,0,0,19.47,95a2.16,2.16,0,0,0,1-1.8,1.9,1.9,0,0,0-.52-1.39A3.48,3.48,0,0,0,18.57,91a21.47,21.47,0,0,0-2.21-.6,17.1,17.1,0,0,1-3.1-1,5.06,5.06,0,0,1-2-1.59,4.06,4.06,0,0,1-.73-2.49,4.29,4.29,0,0,1,.77-2.51,5,5,0,0,1,2.24-1.7A9.3,9.3,0,0,1,17,80.52a8.56,8.56,0,0,1,2.73.39,5.69,5.69,0,0,1,1.92,1,4.17,4.17,0,0,1,1.11,1.36,3.1,3.1,0,0,1,.36,1.4,1.64,1.64,0,0,1-.44,1.11,1.39,1.39,0,0,1-1.1.5,1.26,1.26,0,0,1-.91-.3,3.89,3.89,0,0,1-.67-1,4.35,4.35,0,0,0-1.13-1.52A3.23,3.23,0,0,0,16.77,83a3.69,3.69,0,0,0-2.17.59A1.74,1.74,0,0,0,13.77,85a1.5,1.5,0,0,0,.28.89,2.4,2.4,0,0,0,.78.64,6.06,6.06,0,0,0,1,.43c.34.1.89.25,1.67.44,1,.23,1.84.48,2.63.75a8,8,0,0,1,2,1,4.09,4.09,0,0,1,1.29,1.48A4.74,4.74,0,0,1,23.88,92.84Z"/><path class="cls-1" d="M26.85,90.89V82.63a2.28,2.28,0,0,1,.48-1.58,1.59,1.59,0,0,1,1.24-.53,1.67,1.67,0,0,1,1.29.53,2.33,2.33,0,0,1,.47,1.58v8.45a7.9,7.9,0,0,0,.32,2.41A2.84,2.84,0,0,0,31.8,95a4.22,4.22,0,0,0,2.29.53A3.47,3.47,0,0,0,37,94.44a5.35,5.35,0,0,0,.84-3.29V82.63A2.34,2.34,0,0,1,38.29,81a1.59,1.59,0,0,1,1.25-.52,1.63,1.63,0,0,1,1.27.52,2.24,2.24,0,0,1,.49,1.59v8.26a12.25,12.25,0,0,1-.39,3.36,5.23,5.23,0,0,1-1.48,2.37,5.91,5.91,0,0,1-2.18,1.27,9.74,9.74,0,0,1-2.91.4,12.15,12.15,0,0,1-3.41-.43,5.49,5.49,0,0,1-2.33-1.33,5.3,5.3,0,0,1-1.33-2.29A11.78,11.78,0,0,1,26.85,90.89Z"/><path class="cls-1" d="M52.4,98H47.15a2.15,2.15,0,0,1-1.62-.51A2.26,2.26,0,0,1,45,95.86V83a2.27,2.27,0,0,1,.5-1.64,2.22,2.22,0,0,1,1.61-.5h5.56a12.05,12.05,0,0,1,2.14.16,4.42,4.42,0,0,1,1.61.58,4.13,4.13,0,0,1,1.08.92,4,4,0,0,1,.72,1.23,4.25,4.25,0,0,1,.24,1.43,4,4,0,0,1-2.57,3.77q3.38,1.08,3.38,4.19a4.65,4.65,0,0,1-.74,2.6,4.42,4.42,0,0,1-2,1.71,7.39,7.39,0,0,1-1.8.46A18.53,18.53,0,0,1,52.4,98ZM48.52,83.43v4.44h3.19a6.27,6.27,0,0,0,2-.25,1.88,1.88,0,0,0,1.08-.94,2,2,0,0,0,.29-1.1,1.71,1.71,0,0,0-.92-1.73,7.22,7.22,0,0,0-2.83-.42Zm3.62,6.93H48.52v5h3.74q3.52,0,3.53-2.54A2.08,2.08,0,0,0,54.87,91,5.12,5.12,0,0,0,52.14,90.36Z"/><path class="cls-1" d="M65.83,82.63v4.92h7.51V82.63a2.33,2.33,0,0,1,.47-1.58,1.77,1.77,0,0,1,2.52,0,2.24,2.24,0,0,1,.49,1.59V96.16a2.25,2.25,0,0,1-.49,1.6,1.67,1.67,0,0,1-1.27.53,1.57,1.57,0,0,1-1.25-.54,2.34,2.34,0,0,1-.47-1.59V90.39H65.83v5.77a2.3,2.3,0,0,1-.49,1.6,1.67,1.67,0,0,1-1.27.53,1.57,1.57,0,0,1-1.25-.54,2.29,2.29,0,0,1-.47-1.59V82.63a2.33,2.33,0,0,1,.46-1.58,1.6,1.6,0,0,1,1.26-.53,1.64,1.64,0,0,1,1.27.52A2.24,2.24,0,0,1,65.83,82.63Z"/><path class="cls-1" d="M91.55,96.05l-.82-2.16h-7l-.82,2.2a8,8,0,0,1-.82,1.74,1.3,1.3,0,0,1-1.12.46,1.64,1.64,0,0,1-1.16-.48,1.52,1.52,0,0,1-.5-1.09,2.37,2.37,0,0,1,.12-.73,10.5,10.5,0,0,1,.38-1l4.4-11.16c.12-.32.27-.71.45-1.15a5.3,5.3,0,0,1,.56-1.12A2.19,2.19,0,0,1,86,80.8a2.32,2.32,0,0,1,1.2-.28,2.36,2.36,0,0,1,1.21.28,2.3,2.3,0,0,1,.78.7,5,5,0,0,1,.51.94c.14.33.31.77.52,1.33l4.49,11.08a5.69,5.69,0,0,1,.53,1.84,1.54,1.54,0,0,1-.5,1.1,1.64,1.64,0,0,1-1.2.5,1.55,1.55,0,0,1-.71-.15,1.46,1.46,0,0,1-.49-.4,4.5,4.5,0,0,1-.43-.77Zm-6.89-4.77h5.13L87.2,84.19Z"/><path class="cls-2" d="M16.83,116.85a1.92,1.92,0,0,1-.17.73,2.88,2.88,0,0,1-.53.79,2.75,2.75,0,0,1-.93.62,3.28,3.28,0,0,1-1.3.24,4.58,4.58,0,0,1-1-.11,3,3,0,0,1-.85-.33,3,3,0,0,1-.69-.6,4,4,0,0,1-.49-.76,4,4,0,0,1-.3-.89,5.3,5.3,0,0,1-.1-1,4.62,4.62,0,0,1,.25-1.55,3.18,3.18,0,0,1,.73-1.17,3.15,3.15,0,0,1,1.09-.74,3.56,3.56,0,0,1,1.35-.25,3.32,3.32,0,0,1,1.54.34,2.73,2.73,0,0,1,1,.86,1.64,1.64,0,0,1,.37,1,.6.6,0,0,1-.18.44.55.55,0,0,1-.42.19.57.57,0,0,1-.42-.13,1.64,1.64,0,0,1-.31-.45,2.17,2.17,0,0,0-.67-.8,1.65,1.65,0,0,0-.94-.26,1.71,1.71,0,0,0-1.43.68,3.08,3.08,0,0,0-.53,1.93,3.48,3.48,0,0,0,.24,1.38,1.68,1.68,0,0,0,.66.83,1.86,1.86,0,0,0,1,.28,1.79,1.79,0,0,0,1-.31,1.89,1.89,0,0,0,.66-.92,1.42,1.42,0,0,1,.23-.46.5.5,0,0,1,.44-.17.6.6,0,0,1,.44.18A.62.62,0,0,1,16.83,116.85Z"/><path class="cls-2" d="M24.58,116h-.51v2.3a1,1,0,0,1-.2.67.66.66,0,0,1-.52.22.68.68,0,0,1-.54-.23,1,1,0,0,1-.19-.66v-5.5a.92.92,0,0,1,.21-.68.94.94,0,0,1,.68-.21h2.36a6.67,6.67,0,0,1,.83,0,2.09,2.09,0,0,1,.63.17,1.81,1.81,0,0,1,.59.4,1.67,1.67,0,0,1,.39.62,2,2,0,0,1,.14.74,1.76,1.76,0,0,1-.45,1.27,2.57,2.57,0,0,1-1.37.68,2.73,2.73,0,0,1,.74.61,6.36,6.36,0,0,1,.62.85,5,5,0,0,1,.43.82,1.75,1.75,0,0,1,.16.5.54.54,0,0,1-.09.28.76.76,0,0,1-.25.22.83.83,0,0,1-.36.08.69.69,0,0,1-.41-.12,1,1,0,0,1-.29-.29c-.08-.11-.19-.29-.32-.51l-.58-1a5.2,5.2,0,0,0-.56-.81,1.38,1.38,0,0,0-.5-.38A1.71,1.71,0,0,0,24.58,116Zm.83-3H24.07v2h1.3a3.67,3.67,0,0,0,.88-.09,1,1,0,0,0,.54-.3A.88.88,0,0,0,27,114a.9.9,0,0,0-.57-.87A3.12,3.12,0,0,0,25.41,113Z"/><path class="cls-2" d="M38.9,118.3l-.34-.9H35.65l-.34.91A4,4,0,0,1,35,119a.54.54,0,0,1-.47.19A.69.69,0,0,1,34,119a.63.63,0,0,1-.21-.46.86.86,0,0,1,0-.3,3.62,3.62,0,0,1,.16-.43l1.83-4.65c0-.14.11-.3.19-.48a2.29,2.29,0,0,1,.23-.47,1,1,0,0,1,.33-.3,1.19,1.19,0,0,1,1,0,1,1,0,0,1,.33.3,2,2,0,0,1,.21.38c.06.14.13.33.22.56l1.87,4.62a2.2,2.2,0,0,1,.22.76.63.63,0,0,1-.21.46.67.67,0,0,1-.5.21.65.65,0,0,1-.29-.06.68.68,0,0,1-.21-.17,2.61,2.61,0,0,1-.18-.32Zm-2.87-2h2.14l-1.08-3Z"/><path class="cls-2" d="M50.29,113.07H47.43v1.83h2.39a.73.73,0,0,1,.5.15.5.5,0,0,1,.16.39.51.51,0,0,1-.16.4.75.75,0,0,1-.5.15H47.43v2.35a.93.93,0,0,1-.2.67.66.66,0,0,1-.52.22.69.69,0,0,1-.52-.22.94.94,0,0,1-.21-.67v-5.5a1.22,1.22,0,0,1,.1-.51.55.55,0,0,1,.29-.29,1.21,1.21,0,0,1,.5-.09h3.42a.79.79,0,0,1,.52.15.52.52,0,0,1,.16.4.53.53,0,0,1-.16.41A.79.79,0,0,1,50.29,113.07Z"/><path class="cls-2" d="M61.2,113.14H59.62v5.2a1,1,0,0,1-.2.67.66.66,0,0,1-.52.22.69.69,0,0,1-.52-.22.94.94,0,0,1-.21-.67v-5.2H56.59A.8.8,0,0,1,56,113a.55.55,0,0,1-.18-.43.53.53,0,0,1,.19-.44.77.77,0,0,1,.54-.16H61.2a.81.81,0,0,1,.56.16.57.57,0,0,1,.18.44.55.55,0,0,1-.18.43A.81.81,0,0,1,61.2,113.14Z"/><path class="cls-2" d="M67.36,118.34V112.7a.94.94,0,0,1,.2-.65.67.67,0,0,1,.52-.22.71.71,0,0,1,.53.21.93.93,0,0,1,.2.66v5.64a.94.94,0,0,1-.2.67.74.74,0,0,1-1,0A1,1,0,0,1,67.36,118.34Z"/><path class="cls-2" d="M76.82,112.69l2.79,4.22v-4.25a1,1,0,0,1,.18-.63.63.63,0,0,1,.48-.2.63.63,0,0,1,.49.2,1,1,0,0,1,.18.63v5.63c0,.62-.26.94-.78.94a1,1,0,0,1-.35-.06.82.82,0,0,1-.29-.18,1.76,1.76,0,0,1-.26-.28l-.23-.34-2.72-4.17v4.2a.89.89,0,0,1-.19.62.64.64,0,0,1-.49.21.62.62,0,0,1-.49-.21,1,1,0,0,1-.19-.62v-5.52a1.66,1.66,0,0,1,.08-.56.88.88,0,0,1,.31-.36.84.84,0,0,1,.46-.13.9.9,0,0,1,.34.06.81.81,0,0,1,.24.17,1.82,1.82,0,0,1,.22.28Z"/><path class="cls-2" d="M93.57,116.2v1.37a1.58,1.58,0,0,1,0,.43.83.83,0,0,1-.2.3,1.83,1.83,0,0,1-.37.25,5.64,5.64,0,0,1-1.25.52,5.4,5.4,0,0,1-1.31.16,4.22,4.22,0,0,1-1.5-.26,3.14,3.14,0,0,1-1.16-.73,3.48,3.48,0,0,1-.74-1.18A4.81,4.81,0,0,1,87,114a3.1,3.1,0,0,1,.73-1.18,3.16,3.16,0,0,1,1.18-.74,4.5,4.5,0,0,1,1.57-.25,3.87,3.87,0,0,1,1.28.19,2.93,2.93,0,0,1,.9.48,2.23,2.23,0,0,1,.52.62,1.27,1.27,0,0,1,.18.59.63.63,0,0,1-.2.46.69.69,0,0,1-.49.19.66.66,0,0,1-.3-.07.68.68,0,0,1-.24-.2,6.36,6.36,0,0,0-.45-.64,1.66,1.66,0,0,0-.51-.36,1.84,1.84,0,0,0-.8-.15,2.19,2.19,0,0,0-.9.18,1.74,1.74,0,0,0-.67.5,2.24,2.24,0,0,0-.43.81,3.53,3.53,0,0,0-.15,1.06,2.9,2.9,0,0,0,.58,1.94,2,2,0,0,0,1.61.67,3.26,3.26,0,0,0,.95-.13,4.43,4.43,0,0,0,.89-.37v-1.16H91.12a1.2,1.2,0,0,1-.61-.13.44.44,0,0,1-.21-.41.54.54,0,0,1,.17-.4.7.7,0,0,1,.47-.15h1.65a1.91,1.91,0,0,1,.51.05.63.63,0,0,1,.34.24A1,1,0,0,1,93.57,116.2Z"/><path class="cls-2" d="M109.51,119.11h-2.19a.88.88,0,0,1-.68-.22,1,1,0,0,1-.2-.67v-5.38a.76.76,0,0,1,.88-.89h2.32a5.75,5.75,0,0,1,.89.06,1.69,1.69,0,0,1,.67.25,1.76,1.76,0,0,1,.75.89,1.7,1.7,0,0,1,.1.59,1.66,1.66,0,0,1-1.07,1.58,1.74,1.74,0,0,1,1.41,1.74,1.93,1.93,0,0,1-.31,1.09,1.86,1.86,0,0,1-.83.71,3.16,3.16,0,0,1-.75.19A7.1,7.1,0,0,1,109.51,119.11ZM107.89,113v1.85h1.33a2.62,2.62,0,0,0,.84-.11.78.78,0,0,0,.45-.39.87.87,0,0,0,.12-.45.73.73,0,0,0-.38-.73,3.16,3.16,0,0,0-1.18-.17Zm1.51,2.89h-1.51V118h1.56c1,0,1.47-.36,1.47-1.06a.88.88,0,0,0-.38-.79A2.2,2.2,0,0,0,109.4,115.93Z"/><path class="cls-2" d="M122.86,113.07h-3.27v1.75h3a.73.73,0,0,1,.5.15.51.51,0,0,1,.16.4.5.5,0,0,1-.16.39.67.67,0,0,1-.5.16h-3v2H123a.79.79,0,0,1,.52.16.6.6,0,0,1,0,.84.79.79,0,0,1-.52.16H119a.76.76,0,0,1-.89-.89v-5.38a1.08,1.08,0,0,1,.1-.51.55.55,0,0,1,.29-.29,1.21,1.21,0,0,1,.5-.09h3.83a.79.79,0,0,1,.52.15.52.52,0,0,1,.16.4.53.53,0,0,1-.16.41A.79.79,0,0,1,122.86,113.07Z"/><path class="cls-2" d="M133.89,118.3l-.34-.9h-2.91l-.34.91a3.41,3.41,0,0,1-.34.73.54.54,0,0,1-.47.19.69.69,0,0,1-.48-.2.63.63,0,0,1-.21-.46,1.17,1.17,0,0,1,0-.3c0-.1.09-.25.16-.43l1.83-4.65c0-.14.12-.3.19-.48a2.29,2.29,0,0,1,.23-.47,1.18,1.18,0,0,1,.33-.3,1,1,0,0,1,.5-.11,1,1,0,0,1,.51.11,1,1,0,0,1,.32.3,1.58,1.58,0,0,1,.21.38c.06.14.13.33.22.56l1.87,4.62a2.2,2.2,0,0,1,.22.76.63.63,0,0,1-.21.46.71.71,0,0,1-.79.15.55.55,0,0,1-.2-.17,1.3,1.3,0,0,1-.18-.32Zm-2.87-2h2.14l-1.08-3Z"/><path class="cls-2" d="M140.63,116.15V112.7a.94.94,0,0,1,.2-.65.66.66,0,0,1,.52-.22.67.67,0,0,1,.54.22.94.94,0,0,1,.19.65v3.53a3.17,3.17,0,0,0,.14,1,1.11,1.11,0,0,0,.48.62,1.69,1.69,0,0,0,1,.23,1.4,1.4,0,0,0,1.2-.46,2.16,2.16,0,0,0,.36-1.37V112.7a1,1,0,0,1,.19-.66.67.67,0,0,1,.52-.21.69.69,0,0,1,.53.21.93.93,0,0,1,.21.66v3.45a5.05,5.05,0,0,1-.17,1.4,2.1,2.1,0,0,1-.62,1,2.29,2.29,0,0,1-.9.53,4,4,0,0,1-1.22.17,5,5,0,0,1-1.42-.18,2.31,2.31,0,0,1-1-.55,2.27,2.27,0,0,1-.55-1A4.74,4.74,0,0,1,140.63,116.15Z"/><path class="cls-2" d="M157.37,113.14h-1.58v5.2a1,1,0,0,1-.2.67.66.66,0,0,1-.52.22.69.69,0,0,1-.52-.22.94.94,0,0,1-.21-.67v-5.2h-1.58a.79.79,0,0,1-.55-.16.55.55,0,0,1-.18-.43.53.53,0,0,1,.19-.44.77.77,0,0,1,.54-.16h4.61a.81.81,0,0,1,.56.16.57.57,0,0,1,.18.44.55.55,0,0,1-.18.43A.83.83,0,0,1,157.37,113.14Z"/><path class="cls-2" d="M163.53,118.34V112.7a.94.94,0,0,1,.2-.65.66.66,0,0,1,.52-.22.71.71,0,0,1,.53.21,1,1,0,0,1,.2.66v5.64a1,1,0,0,1-.2.67.74.74,0,0,1-1.05,0A1,1,0,0,1,163.53,118.34Z"/><path class="cls-2" d="M175.38,113.07h-2.86v1.83h2.39a.73.73,0,0,1,.5.15.5.5,0,0,1,.16.39.48.48,0,0,1-.17.4.7.7,0,0,1-.49.15h-2.39v2.35a.93.93,0,0,1-.2.67.66.66,0,0,1-.52.22.69.69,0,0,1-.52-.22.94.94,0,0,1-.21-.67v-5.5a1.08,1.08,0,0,1,.1-.51.52.52,0,0,1,.29-.29,1.21,1.21,0,0,1,.5-.09h3.42a.79.79,0,0,1,.52.15.52.52,0,0,1,.16.4.53.53,0,0,1-.16.41A.79.79,0,0,1,175.38,113.07Z"/><path class="cls-2" d="M181.65,116.15V112.7a.94.94,0,0,1,.2-.65.66.66,0,0,1,.52-.22.67.67,0,0,1,.53.22.89.89,0,0,1,.2.65v3.53a3.17,3.17,0,0,0,.14,1,1.1,1.1,0,0,0,.47.62,1.75,1.75,0,0,0,1,.23,1.4,1.4,0,0,0,1.2-.46,2.16,2.16,0,0,0,.35-1.37V112.7a1,1,0,0,1,.2-.66.67.67,0,0,1,.52-.21.71.71,0,0,1,.53.21.93.93,0,0,1,.2.66v3.45a5.09,5.09,0,0,1-.16,1.4,2.19,2.19,0,0,1-.62,1,2.25,2.25,0,0,1-.91.53,4,4,0,0,1-1.21.17,5,5,0,0,1-1.42-.18,2.1,2.1,0,0,1-1.52-1.51A4.74,4.74,0,0,1,181.65,116.15Z"/><path class="cls-2" d="M195.16,112.7v5.21h2.94a.77.77,0,0,1,.54.18.53.53,0,0,1,.19.43.52.52,0,0,1-.19.42.78.78,0,0,1-.54.17h-3.5a.92.92,0,0,1-.68-.21.94.94,0,0,1-.21-.68V112.7a.94.94,0,0,1,.2-.65.65.65,0,0,1,.52-.22.71.71,0,0,1,.53.21A1,1,0,0,1,195.16,112.7Z"/><path class="cls-2" d="M216.72,117a2.1,2.1,0,0,1-.33,1.16,2.28,2.28,0,0,1-1,.82,3.76,3.76,0,0,1-1.53.29,3.51,3.51,0,0,1-1.75-.4,2.24,2.24,0,0,1-.79-.77,1.7,1.7,0,0,1-.31-.94.64.64,0,0,1,.18-.45.67.67,0,0,1,.47-.19.56.56,0,0,1,.39.15,1.18,1.18,0,0,1,.27.43,2.85,2.85,0,0,0,.3.58,1.08,1.08,0,0,0,.44.37,1.66,1.66,0,0,0,.76.15,1.72,1.72,0,0,0,1-.3.92.92,0,0,0,.4-.75.75.75,0,0,0-.22-.57,1.26,1.26,0,0,0-.56-.34,7.61,7.61,0,0,0-.92-.25,6.27,6.27,0,0,1-1.29-.43,2.17,2.17,0,0,1-.83-.65,1.75,1.75,0,0,1-.3-1,1.79,1.79,0,0,1,.32-1,2.11,2.11,0,0,1,.93-.71,4,4,0,0,1,1.44-.24A3.52,3.52,0,0,1,215,112a2.43,2.43,0,0,1,.8.43,1.83,1.83,0,0,1,.46.57,1.28,1.28,0,0,1,.15.58.66.66,0,0,1-.19.47.57.57,0,0,1-.45.21.5.5,0,0,1-.38-.13,1.6,1.6,0,0,1-.28-.4,1.9,1.9,0,0,0-.47-.64,1.39,1.39,0,0,0-.88-.22,1.58,1.58,0,0,0-.91.24.74.74,0,0,0-.34.6.61.61,0,0,0,.12.37,1.09,1.09,0,0,0,.32.27,2.47,2.47,0,0,0,.42.17l.69.19a10.39,10.39,0,0,1,1.09.31,3.29,3.29,0,0,1,.84.41,1.79,1.79,0,0,1,.54.62A2,2,0,0,1,216.72,117Z"/><path class="cls-2" d="M224.87,118l-1.15-4.56v4.94a.89.89,0,0,1-.18.61.64.64,0,0,1-.49.21.66.66,0,0,1-.48-.2.94.94,0,0,1-.18-.62v-5.67a.72.72,0,0,1,.24-.63,1.15,1.15,0,0,1,.66-.16h.45a1.7,1.7,0,0,1,.59.07.53.53,0,0,1,.27.26,5.09,5.09,0,0,1,.2.62l1,3.93,1-3.93a3.77,3.77,0,0,1,.2-.62.53.53,0,0,1,.27-.26,1.7,1.7,0,0,1,.59-.07h.45a1.2,1.2,0,0,1,.66.16.72.72,0,0,1,.24.63v5.67a.89.89,0,0,1-.18.61.62.62,0,0,1-.49.21.63.63,0,0,1-.48-.21.89.89,0,0,1-.18-.61v-4.94L226.81,118c-.07.29-.14.51-.18.65a1,1,0,0,1-.26.38.8.8,0,0,1-.53.17.83.83,0,0,1-.43-.11.8.8,0,0,1-.27-.28,1.61,1.61,0,0,1-.16-.38C224.94,118.32,224.91,118.18,224.87,118Z"/><path class="cls-2" d="M235.34,118.34V112.7a.94.94,0,0,1,.2-.65.66.66,0,0,1,.52-.22.72.72,0,0,1,.53.21,1,1,0,0,1,.2.66v5.64a1,1,0,0,1-.2.67.73.73,0,0,1-.53.22.71.71,0,0,1-.52-.22A1,1,0,0,1,235.34,118.34Z"/><path class="cls-2" d="M244.33,112.7v5.21h2.94a.77.77,0,0,1,.54.18.53.53,0,0,1,.19.43.52.52,0,0,1-.19.42.78.78,0,0,1-.54.17h-3.5a.92.92,0,0,1-.68-.21.94.94,0,0,1-.21-.68V112.7a.94.94,0,0,1,.2-.65.65.65,0,0,1,.52-.22.71.71,0,0,1,.53.21A1,1,0,0,1,244.33,112.7Z"/><path class="cls-2" d="M258.17,113.07H254.9v1.75h3a.7.7,0,0,1,.49.15.51.51,0,0,1,.17.4.53.53,0,0,1-.16.39.68.68,0,0,1-.5.16h-3v2h3.38a.74.74,0,0,1,.51.16.58.58,0,0,1,0,.84.74.74,0,0,1-.51.16h-3.94a.92.92,0,0,1-.68-.21.94.94,0,0,1-.21-.68v-5.38a1.23,1.23,0,0,1,.09-.51.55.55,0,0,1,.29-.29,1.26,1.26,0,0,1,.51-.09h3.83a.74.74,0,0,1,.51.15.53.53,0,0,1,.17.4.53.53,0,0,1-.17.41A.74.74,0,0,1,258.17,113.07Z"/><path class="cls-2" d="M270.06,117a2.1,2.1,0,0,1-.33,1.16,2.28,2.28,0,0,1-1,.82,3.76,3.76,0,0,1-1.53.29,3.51,3.51,0,0,1-1.75-.4,2.24,2.24,0,0,1-.79-.77,1.7,1.7,0,0,1-.31-.94.64.64,0,0,1,.18-.45.67.67,0,0,1,.47-.19.56.56,0,0,1,.39.15,1.33,1.33,0,0,1,.27.43,2.85,2.85,0,0,0,.3.58,1.08,1.08,0,0,0,.44.37,1.66,1.66,0,0,0,.76.15,1.72,1.72,0,0,0,1.05-.3.92.92,0,0,0,.4-.75.75.75,0,0,0-.22-.57,1.26,1.26,0,0,0-.56-.34,7.61,7.61,0,0,0-.92-.25,6.07,6.07,0,0,1-1.29-.43,2.17,2.17,0,0,1-.83-.65,1.75,1.75,0,0,1-.3-1,1.79,1.79,0,0,1,.32-1,2.05,2.05,0,0,1,.93-.71,4,4,0,0,1,1.44-.24,3.52,3.52,0,0,1,1.14.16,2.43,2.43,0,0,1,.8.43,1.83,1.83,0,0,1,.46.57,1.28,1.28,0,0,1,.15.58.66.66,0,0,1-.19.47.57.57,0,0,1-.45.21.5.5,0,0,1-.38-.13,1.6,1.6,0,0,1-.28-.4,1.9,1.9,0,0,0-.47-.64,1.39,1.39,0,0,0-.88-.22,1.58,1.58,0,0,0-.91.24.74.74,0,0,0-.34.6.61.61,0,0,0,.12.37,1.09,1.09,0,0,0,.32.27,2.17,2.17,0,0,0,.42.17l.69.19a10.39,10.39,0,0,1,1.09.31,3.29,3.29,0,0,1,.84.41,1.79,1.79,0,0,1,.54.62A2,2,0,0,1,270.06,117Z"/><path class="cls-3" d="M119.08,100.19c1.94-.15,3.89-.15,5.8-.45,8.81-1.39,15-7.66,16.49-16.56a20.49,20.49,0,0,0-.54-9.87,12.53,12.53,0,0,0-1.68-3.3,4.2,4.2,0,0,0-6.14-1,17.13,17.13,0,0,0-4.81,5.53,72.81,72.81,0,0,0-5.43,12.13c-1,2.65-2.26,5.21-3.49,7.76a8,8,0,0,1-1.6,2c-1.87,1.89-4.08,2.12-6.15.43a21.35,21.35,0,0,1-3.75-3.85c-4.11-5.54-6.87-11.8-9.58-18.08a105.09,105.09,0,0,1-7.56-24.28,43.33,43.33,0,0,1-.13-15.11c1.62-8.72,6.65-14.85,14.5-18.78a50.53,50.53,0,0,1,14.47-4.41,116.63,116.63,0,0,1,24.7-1.07,16.73,16.73,0,0,1,3.57.49l-2.69.6a188.76,188.76,0,0,0-23.51,6.22,43.44,43.44,0,0,0-10.87,5.4c-5.52,3.95-8.06,9.43-8.43,16.08a60,60,0,0,0,1.43,15.29,183.33,183.33,0,0,0,6.52,24.41,33.93,33.93,0,0,0,3.15,6.29c1,1.6,2.48,1.55,3.5-.06a28.84,28.84,0,0,0,2.45-4.91c2.15-5.59,4.44-11.11,8.45-15.66a17.65,17.65,0,0,1,4.53-3.57,6.64,6.64,0,0,1,7.81,1.14,17.21,17.21,0,0,1,4.9,8.43,27.16,27.16,0,0,1,.13,15.19,18.41,18.41,0,0,1-8.61,11.42,22,22,0,0,1-11.83,2.67c-1.86-.05-3.72-.25-5.58-.39Z"/><path class="cls-2" d="M155.33,92.54a4.38,4.38,0,0,1-.79.61h0c-1.65,1.14-5.45,3.49-7.76,4a26.2,26.2,0,0,1-4.25.65c-.23,0-.29-.1-.24-.31,1-.75,1.78-1.39,2.58-2.06a39.18,39.18,0,0,0,5.86-6.29c.2.87,1.32,5,4.54,3.44C155.3,92.54,155.33,92.53,155.33,92.54Z"/><path class="cls-2" d="M183,37.31a.93.93,0,0,1-.1.37c-1.62,2.86-9.58,1.42-13.39.34a7.11,7.11,0,0,1-3.44-2c-3.11-3.52-5.52-6.29-11.25-6.05a55.57,55.57,0,0,0-12.5,2.09,188.75,188.75,0,0,0-25.7,9.63c-1.39.61-2.78,1.2-4.16,1.79a2.12,2.12,0,0,1-.11-.21c.24-.17.47-.35.72-.5,10.42-6.24,20.88-12.41,32-17.34,6.39-2.84,12.9-5.3,19.87-6.29a21.9,21.9,0,0,1,8.07.1,11.49,11.49,0,0,1,8.31,6.91A24.35,24.35,0,0,1,183,37.31Z"/><path class="cls-2" d="M161.76,86.23a51.52,51.52,0,0,1-5.29,5.36c-1.54-.09-4.47-2.65-5-3.44.72-1,1.41-2,2.07-3.07.38-.59.75-1.18,1.11-1.78l.16-.2S158.23,89.38,161.76,86.23Z"/><path class="cls-2" d="M166.28,80.5c-1.28,1.78-2.63,3.5-4.07,5.19a23,23,0,0,1-7-3.37l.09-.15q1.5-2.52,2.82-5.1h0l.06-.08S162.91,83,166.28,80.5Z"/><path class="cls-2" d="M170.71,73.68c-.77,1.31-1.58,2.61-2.41,3.88l-1,1.42h0l-.36.51c-1.56,0-7-2.29-8.44-3.28.27-.54.54-1.08.8-1.63.69-1.45,1.34-2.9,1.95-4.38C162.28,71.28,167.44,76.56,170.71,73.68Z"/><path class="cls-2" d="M174.23,67.07l-.43.88s0,.07-.05.1c-.39.78-.78,1.54-1.19,2.31l0,0c-.43.81-.87,1.61-1.32,2.41-1.82-.1-7.83-2.37-9.6-3.39.11-.28.22-.57.34-.85.33-.86.65-1.71.95-2.57h0c.29-.8.56-1.61.82-2.43v0L164,63S170.24,69.52,174.23,67.07Z"/><path class="cls-2" d="M177.55,59.47v0a3.65,3.65,0,0,1-.14.35c-.19.49-.38,1-.58,1.45h0c-.63,1.52-1.28,3-2,4.49-2.28-.2-9.69-3.08-10.62-3.85a2.17,2.17,0,0,0,.07-.24h0c.09-.48.46-1.41.67-2.39h0l0-.11c.18-.66.34-1.33.49-2s.3-1.31.44-2C167.26,56.44,174.09,62.37,177.55,59.47Z"/><path class="cls-2" d="M180.69,50.14c-.12.47-.25.92-.39,1.38-.63,2.17-1.37,4.32-2.17,6.45-2.33,0-10.81-3-12-3.73.2-1,.38-2,.54-3.05,0-.32.09-.63.13-.94.13-.89.23-1.77.3-2.67h0c0-.06,0-.13,0-.2C168.94,48.54,177.71,53.78,180.69,50.14Z"/><path class="cls-2" d="M182.37,42A57.22,57.22,0,0,1,181,49.17c-2.52,0-11.7-2.08-13.76-2.85a28,28,0,0,0-.29-5.92h0c0-.16-.06-.33-.08-.5l-.15-.74C168.6,40.05,178.81,44.61,182.37,42Z"/><path class="cls-2" d="M119.94,48.63s16,9.61,27.57-4.24a1.44,1.44,0,0,0-1-2.39h-.05C144.78,42,139,52.77,119.94,48.63Z"/><path class="cls-1" d="M177.52,81.25h4.54a12.13,12.13,0,0,1,3,.32,5.66,5.66,0,0,1,2.3,1.23c1.79,1.54,2.68,3.86,2.68,7a13.64,13.64,0,0,1-.27,2.82,8.66,8.66,0,0,1-.83,2.31,7.46,7.46,0,0,1-1.44,1.83,6.19,6.19,0,0,1-1.51,1,6.84,6.84,0,0,1-1.77.52,13.46,13.46,0,0,1-2.12.16h-4.54a2.86,2.86,0,0,1-1.43-.29,1.34,1.34,0,0,1-.63-.81,5.53,5.53,0,0,1-.14-1.35V83.38a2.27,2.27,0,0,1,.5-1.63A2.23,2.23,0,0,1,177.52,81.25ZM178.87,84V95.66h2.63c.58,0,1,0,1.36,0a4.38,4.38,0,0,0,1-.23,2.78,2.78,0,0,0,.92-.53c1.16-1,1.74-2.68,1.74-5.08a7.5,7.5,0,0,0-.76-3.81,3.43,3.43,0,0,0-1.9-1.61,9,9,0,0,0-2.71-.35Z"/><path class="cls-1" d="M204.45,83.93h-7.84v4.22h7.22a1.71,1.71,0,0,1,1.19.36,1.2,1.2,0,0,1,.39.94,1.24,1.24,0,0,1-.39,1,1.63,1.63,0,0,1-1.19.37h-7.22v4.89h8.11A1.8,1.8,0,0,1,206,96a1.32,1.32,0,0,1,.41,1,1.29,1.29,0,0,1-.41,1,1.76,1.76,0,0,1-1.24.39h-9.46a2.2,2.2,0,0,1-1.63-.51,2.25,2.25,0,0,1-.5-1.63V83.38a2.91,2.91,0,0,1,.22-1.23,1.42,1.42,0,0,1,.7-.69,3,3,0,0,1,1.21-.21h9.19a1.84,1.84,0,0,1,1.24.36,1.39,1.39,0,0,1,0,2A1.79,1.79,0,0,1,204.45,83.93Z"/><path class="cls-1" d="M213.67,83l6.69,10.12V82.94a2.26,2.26,0,0,1,.43-1.49A1.46,1.46,0,0,1,222,81a1.49,1.49,0,0,1,1.18.5,2.21,2.21,0,0,1,.43,1.49V96.46c0,1.5-.62,2.26-1.87,2.26a2.52,2.52,0,0,1-.85-.14,2.21,2.21,0,0,1-.7-.42,4.55,4.55,0,0,1-.61-.69c-.19-.26-.37-.53-.56-.8l-6.53-10V96.73a2.15,2.15,0,0,1-.45,1.48,1.52,1.52,0,0,1-1.18.51,1.49,1.49,0,0,1-1.18-.51,2.18,2.18,0,0,1-.45-1.48V83.47a3.85,3.85,0,0,1,.19-1.32,1.92,1.92,0,0,1,.74-.86,2,2,0,0,1,1.11-.34,1.75,1.75,0,0,1,1.39.57,4.34,4.34,0,0,1,.52.66C213.3,82.46,213.49,82.74,213.67,83Z"/><path class="cls-1" d="M238.53,84.12h-3.8V96.6a2.3,2.3,0,0,1-.48,1.6,1.75,1.75,0,0,1-2.5,0,2.24,2.24,0,0,1-.49-1.59V84.12h-3.79a1.89,1.89,0,0,1-1.33-.4,1.31,1.31,0,0,1-.43-1,1.33,1.33,0,0,1,.45-1.06,2,2,0,0,1,1.31-.38h11.06a2,2,0,0,1,1.34.39,1.37,1.37,0,0,1,.44,1,1.29,1.29,0,0,1-.45,1A1.91,1.91,0,0,1,238.53,84.12Z"/><path class="cls-1" d="M251.85,96.48,251,94.32h-7l-.82,2.21a8,8,0,0,1-.82,1.74,1.32,1.32,0,0,1-1.12.45,1.65,1.65,0,0,1-1.16-.48,1.5,1.5,0,0,1-.5-1.09,2.37,2.37,0,0,1,.12-.73c.08-.25.2-.6.38-1l4.4-11.16c.12-.32.27-.7.45-1.15a6.13,6.13,0,0,1,.56-1.12,2.19,2.19,0,0,1,.79-.72,2.32,2.32,0,0,1,1.2-.28,2.36,2.36,0,0,1,1.21.28,2.26,2.26,0,0,1,.79.71,5.19,5.19,0,0,1,.5.93c.14.33.31.77.52,1.33L255,95.28a5.69,5.69,0,0,1,.53,1.84,1.54,1.54,0,0,1-.5,1.1,1.64,1.64,0,0,1-1.2.5,1.48,1.48,0,0,1-.7-.15,1.5,1.5,0,0,1-.5-.4,3.43,3.43,0,0,1-.42-.77C252.09,97.05,252,96.75,251.85,96.48ZM245,91.71h5.13l-2.59-7.09Z"/><path class="cls-1" d="M261.53,83.06V95.57h7.06a1.82,1.82,0,0,1,1.29.41,1.4,1.4,0,0,1,0,2,1.92,1.92,0,0,1-1.3.4h-8.41a2.21,2.21,0,0,1-1.63-.51,2.25,2.25,0,0,1-.5-1.63V83.06a2.28,2.28,0,0,1,.48-1.58,1.59,1.59,0,0,1,1.24-.53,1.7,1.7,0,0,1,1.28.52A2.29,2.29,0,0,1,261.53,83.06Z"/></svg>