<svg width="344" height="193" viewBox="0 0 344 193" fill="none" xmlns="http://www.w3.org/2000/svg">
<g filter="url(#filter0_dd_726_98)">
<rect x="9" y="185" width="176" height="326" transform="rotate(-90 9 185)" fill="#41B981"/>
</g>
<path d="M83.3203 32.0156L83.7734 46.1562L87.0078 48.4219L75.9297 49.3906L79.7422 46.2188L80.6953 31.0781L77.4297 28.5156L86.9453 29.0938L83.3203 32.0156ZM102.492 39.2969C102.492 39.8802 102.466 40.4948 102.414 41.1406C102.362 41.7865 102.284 42.4323 102.18 43.0781C102.076 43.724 101.945 44.3542 101.789 44.9688C101.643 45.5833 101.471 46.1458 101.273 46.6562L104.352 47.6562L96.2109 49.25L98.9766 47.1719C99.1953 46.3698 99.3411 45.599 99.4141 44.8594C99.4974 44.1198 99.5391 43.4219 99.5391 42.7656C99.5391 42.3698 99.5234 41.9219 99.4922 41.4219C99.4714 40.9115 99.4141 40.3958 99.3203 39.875C99.237 39.3542 99.112 38.8438 98.9453 38.3438C98.7891 37.8438 98.5807 37.401 98.3203 37.0156C98.0599 36.6198 97.737 36.3073 97.3516 36.0781C96.9766 35.8385 96.5234 35.7188 95.9922 35.7188C95.3776 35.7188 94.7526 35.9219 94.1172 36.3281C93.4818 36.7344 92.8932 37.3333 92.3516 38.125V46.7656L94.9297 48.6094L87.1953 49.1562L89.2422 46.8906L90.3359 35.5312L87.0078 33.8906L92.3516 33.3594V35.7188C92.6536 35.3021 92.987 34.9115 93.3516 34.5469C93.7161 34.1823 94.1016 33.8698 94.5078 33.6094C94.9141 33.3385 95.3359 33.1302 95.7734 32.9844C96.2214 32.8281 96.6797 32.75 97.1484 32.75C98.0547 32.75 98.8411 32.9167 99.5078 33.25C100.174 33.5833 100.727 34.0469 101.164 34.6406C101.612 35.224 101.945 35.9167 102.164 36.7188C102.383 37.5104 102.492 38.3698 102.492 39.2969ZM103.586 48.8125L105.992 46.8594L107.102 29.4531L103.617 27.7188L109.148 26.7969L109.211 35.5938C109.565 35.0833 109.956 34.6667 110.383 34.3438C110.81 34.0104 111.227 33.75 111.633 33.5625C112.049 33.375 112.43 33.2448 112.773 33.1719C113.128 33.099 113.404 33.0625 113.602 33.0625C114.581 33.0625 115.409 33.2396 116.086 33.5938C116.763 33.9375 117.31 34.4167 117.727 35.0312C118.154 35.6458 118.461 36.375 118.648 37.2188C118.846 38.0521 118.945 38.9583 118.945 39.9375C118.945 40.4792 118.898 41.0573 118.805 41.6719C118.721 42.2865 118.607 42.9062 118.461 43.5312C118.315 44.1458 118.148 44.7448 117.961 45.3281C117.784 45.901 117.602 46.4219 117.414 46.8906L120.508 48.6094L112.414 49.4531L115.836 46.3438C115.982 45.5729 116.086 44.849 116.148 44.1719C116.221 43.4948 116.258 42.8646 116.258 42.2812C116.258 41.9896 116.237 41.6354 116.195 41.2188C116.164 40.8021 116.096 40.3698 115.992 39.9219C115.888 39.4635 115.747 39.0104 115.57 38.5625C115.393 38.1146 115.159 37.7135 114.867 37.3594C114.586 37.0052 114.242 36.7188 113.836 36.5C113.44 36.2812 112.966 36.1719 112.414 36.1719C111.872 36.1719 111.315 36.2917 110.742 36.5312C110.18 36.7708 109.669 37.151 109.211 37.6719L109.32 47.0781L111.398 48.8125H103.586ZM121.492 41.1562C121.492 39.9896 121.674 38.9115 122.039 37.9219C122.414 36.9219 122.93 36.0573 123.586 35.3281C124.253 34.599 125.039 34.0312 125.945 33.625C126.862 33.2083 127.862 33 128.945 33C129.997 33 130.961 33.1979 131.836 33.5938C132.711 33.9792 133.471 34.526 134.117 35.2344C134.763 35.9427 135.279 36.7917 135.664 37.7812C136.049 38.7708 136.279 39.8646 136.352 41.0625C136.424 42.3438 136.289 43.5052 135.945 44.5469C135.612 45.5781 135.117 46.4583 134.461 47.1875C133.805 47.9062 133.018 48.4635 132.102 48.8594C131.195 49.2552 130.211 49.4531 129.148 49.4531C128.128 49.4531 127.154 49.2708 126.227 48.9062C125.31 48.5312 124.497 47.9896 123.789 47.2812C123.091 46.5729 122.534 45.7083 122.117 44.6875C121.701 43.6562 121.492 42.4792 121.492 41.1562ZM125.336 41.4219C125.336 42.3385 125.466 43.1667 125.727 43.9062C125.987 44.6458 126.336 45.276 126.773 45.7969C127.211 46.3073 127.716 46.7031 128.289 46.9844C128.862 47.2656 129.466 47.4062 130.102 47.4062C130.737 47.4062 131.331 47.2708 131.883 47C132.435 46.7188 132.914 46.3281 133.32 45.8281C133.727 45.3177 134.044 44.7083 134.273 44C134.503 43.2917 134.617 42.5052 134.617 41.6406C134.617 40.7865 134.503 39.9844 134.273 39.2344C134.044 38.474 133.721 37.8125 133.305 37.25C132.898 36.6875 132.414 36.2448 131.852 35.9219C131.289 35.599 130.674 35.4375 130.008 35.4375C129.414 35.4375 128.836 35.5729 128.273 35.8438C127.721 36.1146 127.227 36.5104 126.789 37.0312C126.352 37.5417 125.997 38.1667 125.727 38.9062C125.466 39.6458 125.336 40.4844 125.336 41.4219ZM151.695 33.7969L152.305 47.2344L155.117 48.5469L148.711 49.7344L149.008 45.1562C148.716 45.7708 148.383 46.3594 148.008 46.9219C147.633 47.474 147.211 47.9635 146.742 48.3906C146.273 48.8073 145.758 49.1406 145.195 49.3906C144.643 49.6406 144.044 49.7656 143.398 49.7656C142.628 49.7656 141.951 49.6302 141.367 49.3594C140.784 49.0885 140.294 48.7188 139.898 48.25C139.503 47.7708 139.201 47.2135 138.992 46.5781C138.794 45.9323 138.695 45.2448 138.695 44.5156C138.695 43.8385 138.747 43.1354 138.852 42.4062C138.956 41.6771 139.096 40.9583 139.273 40.25C139.461 39.5312 139.68 38.8385 139.93 38.1719C140.19 37.4948 140.471 36.8698 140.773 36.2969L137.477 35.5312L143.664 33.4219C143.268 34.474 142.961 35.4844 142.742 36.4531C142.534 37.4115 142.378 38.2656 142.273 39.0156C142.159 39.8906 142.086 40.7031 142.055 41.4531C142.055 42.4219 142.122 43.2604 142.258 43.9688C142.393 44.6667 142.581 45.25 142.82 45.7188C143.06 46.1771 143.346 46.5208 143.68 46.75C144.013 46.9688 144.378 47.0781 144.773 47.0781C145.378 47.0781 145.919 46.9167 146.398 46.5938C146.878 46.2708 147.299 45.8385 147.664 45.2969C148.039 44.7448 148.357 44.1042 148.617 43.375C148.888 42.6458 149.107 41.875 149.273 41.0625C149.451 40.25 149.581 39.4219 149.664 38.5781C149.747 37.7344 149.794 36.9219 149.805 36.1406L146.414 33.7969H151.695ZM161.352 33.0938C161.747 33.0938 162.148 33.1302 162.555 33.2031C162.961 33.2656 163.357 33.3646 163.742 33.5C164.138 33.625 164.508 33.7812 164.852 33.9688C165.206 34.1458 165.523 34.3438 165.805 34.5625L168.367 31.4062L167.211 39.2031C167.086 38.6615 166.867 38.1302 166.555 37.6094C166.242 37.0781 165.852 36.6042 165.383 36.1875C164.924 35.7708 164.393 35.4375 163.789 35.1875C163.185 34.9271 162.523 34.7969 161.805 34.7969C161.409 34.7969 161.029 34.8438 160.664 34.9375C160.299 35.0208 159.977 35.1615 159.695 35.3594C159.424 35.5573 159.206 35.8073 159.039 36.1094C158.883 36.4115 158.805 36.7708 158.805 37.1875C158.805 37.6875 158.94 38.0938 159.211 38.4062C159.492 38.7188 159.857 38.9844 160.305 39.2031C160.753 39.4115 161.263 39.5938 161.836 39.75C162.409 39.8958 162.997 40.0521 163.602 40.2188C164.206 40.3854 164.794 40.5833 165.367 40.8125C165.94 41.0312 166.451 41.3177 166.898 41.6719C167.346 42.026 167.706 42.4688 167.977 43C168.258 43.5208 168.398 44.1667 168.398 44.9375C168.398 45.8021 168.227 46.5417 167.883 47.1562C167.549 47.7604 167.117 48.2604 166.586 48.6562C166.055 49.0417 165.466 49.3229 164.82 49.5C164.174 49.6771 163.544 49.7656 162.93 49.7656C162.43 49.7656 161.93 49.7135 161.43 49.6094C160.93 49.5052 160.445 49.3594 159.977 49.1719C159.508 48.9844 159.06 48.7604 158.633 48.5C158.216 48.2396 157.836 47.9583 157.492 47.6562L155.117 50.8281L155.852 43.0781C156.185 43.7865 156.586 44.4479 157.055 45.0625C157.523 45.6771 158.044 46.2135 158.617 46.6719C159.19 47.1198 159.805 47.474 160.461 47.7344C161.117 47.9844 161.799 48.1094 162.508 48.1094C163.331 48.1094 163.987 47.9375 164.477 47.5938C164.977 47.2396 165.227 46.7396 165.227 46.0938C165.227 45.6771 165.086 45.3333 164.805 45.0625C164.534 44.7812 164.169 44.5365 163.711 44.3281C163.263 44.1198 162.753 43.9323 162.18 43.7656C161.607 43.599 161.018 43.4167 160.414 43.2188C159.81 43.0208 159.221 42.7917 158.648 42.5312C158.076 42.2604 157.56 41.9271 157.102 41.5312C156.654 41.125 156.289 40.6354 156.008 40.0625C155.737 39.4792 155.602 38.776 155.602 37.9531C155.602 37.2448 155.706 36.6302 155.914 36.1094C156.122 35.5885 156.393 35.151 156.727 34.7969C157.07 34.4323 157.451 34.1406 157.867 33.9219C158.294 33.6927 158.721 33.5208 159.148 33.4062C159.576 33.2812 159.982 33.1979 160.367 33.1562C160.753 33.1146 161.081 33.0938 161.352 33.0938ZM173.773 43.2656C173.909 43.849 174.091 44.4219 174.32 44.9844C174.549 45.5365 174.831 46.0312 175.164 46.4688C175.497 46.9062 175.883 47.2604 176.32 47.5312C176.758 47.8021 177.253 47.9375 177.805 47.9375C178.534 47.9375 179.169 47.7865 179.711 47.4844C180.253 47.1823 180.695 46.8021 181.039 46.3438C181.383 45.875 181.622 45.3646 181.758 44.8125C181.893 44.25 181.919 43.7135 181.836 43.2031C182.128 43.3177 182.367 43.4688 182.555 43.6562C182.753 43.8438 182.904 44.0521 183.008 44.2812C183.122 44.5 183.201 44.7292 183.242 44.9688C183.284 45.1979 183.305 45.4219 183.305 45.6406C183.305 46.1406 183.159 46.625 182.867 47.0938C182.576 47.5521 182.164 47.9635 181.633 48.3281C181.112 48.6823 180.492 48.9688 179.773 49.1875C179.055 49.4062 178.268 49.5156 177.414 49.5156C176.268 49.5156 175.242 49.2917 174.336 48.8438C173.44 48.3958 172.68 47.7917 172.055 47.0312C171.43 46.2604 170.951 45.3594 170.617 44.3281C170.284 43.2969 170.117 42.1979 170.117 41.0312C170.117 39.8438 170.284 38.75 170.617 37.75C170.951 36.7396 171.44 35.8802 172.086 35.1719C172.742 34.4635 173.544 33.9271 174.492 33.5625C175.44 33.1979 176.534 33.0521 177.773 33.125C178.628 33.1875 179.414 33.4323 180.133 33.8594C180.852 34.2865 181.477 34.8385 182.008 35.5156C182.549 36.1823 182.982 36.9479 183.305 37.8125C183.638 38.6771 183.841 39.5781 183.914 40.5156L173.773 43.2656ZM173.477 40.75C173.477 40.8958 173.477 41.0417 173.477 41.1875C173.477 41.3229 173.487 41.4635 173.508 41.6094L180.367 39.1094C180.138 38.3594 179.878 37.7188 179.586 37.1875C179.305 36.6458 179.008 36.2031 178.695 35.8594C178.383 35.5156 178.065 35.2656 177.742 35.1094C177.43 34.9427 177.128 34.8594 176.836 34.8594C176.398 34.8594 176.013 34.9427 175.68 35.1094C175.346 35.276 175.055 35.5052 174.805 35.7969C174.565 36.0781 174.357 36.4115 174.18 36.7969C174.013 37.1823 173.878 37.5938 173.773 38.0312C173.669 38.4688 173.591 38.9219 173.539 39.3906C173.497 39.849 173.477 40.3021 173.477 40.75ZM196.406 13.7266L198.961 17.5703H221.227L207.117 28.75C209.008 28.7812 210.797 29 212.484 29.4062C214.172 29.7969 215.648 30.3984 216.914 31.2109C218.18 32.0078 219.18 33.0312 219.914 34.2812C220.664 35.5156 221.039 37 221.039 38.7344C221.039 40.1406 220.844 41.3984 220.453 42.5078C220.062 43.6172 219.539 44.5938 218.883 45.4375C218.242 46.2656 217.5 46.9766 216.656 47.5703C215.812 48.1484 214.93 48.625 214.008 49C213.102 49.3594 212.18 49.625 211.242 49.7969C210.32 49.9688 209.461 50.0547 208.664 50.0547C208.039 50.0547 207.32 49.9922 206.508 49.8672C205.711 49.7578 204.891 49.5625 204.047 49.2812C203.219 49.0156 202.406 48.6641 201.609 48.2266C200.812 47.7734 200.094 47.2188 199.453 46.5625C198.828 45.9062 198.32 45.1328 197.93 44.2422C197.555 43.3516 197.367 42.3281 197.367 41.1719C197.367 40.8438 197.414 40.4219 197.508 39.9062C197.617 39.3906 197.852 38.8516 198.211 38.2891C198.586 37.7266 199.133 37.1797 199.852 36.6484C200.586 36.1016 201.586 35.6406 202.852 35.2656C202.352 36.0938 201.961 36.9609 201.68 37.8672C201.398 38.7734 201.258 39.6875 201.258 40.6094C201.258 41.4844 201.383 42.3203 201.633 43.1172C201.898 43.9141 202.297 44.6172 202.828 45.2266C203.359 45.8359 204.031 46.3203 204.844 46.6797C205.656 47.0391 206.625 47.2188 207.75 47.2188C209.109 47.2188 210.242 47.0312 211.148 46.6562C212.07 46.2656 212.812 45.75 213.375 45.1094C213.938 44.4688 214.336 43.7266 214.57 42.8828C214.82 42.0234 214.945 41.1328 214.945 40.2109C214.945 39.1172 214.773 38.1406 214.43 37.2812C214.086 36.4219 213.617 35.6719 213.023 35.0312C212.43 34.375 211.734 33.8203 210.938 33.3672C210.156 32.8984 209.32 32.5234 208.43 32.2422C207.555 31.9609 206.648 31.7578 205.711 31.6328C204.773 31.4922 203.867 31.4219 202.992 31.4219C202.773 31.4219 202.555 31.4219 202.336 31.4219C202.133 31.4219 201.922 31.4375 201.703 31.4688L209.273 22.2578L200.297 20.4766L198.328 25.2812L196.406 13.7266ZM229.102 49.1875C226.648 49.1875 224.156 49 221.625 48.625L228 45.6953L230.156 21.4844L222.914 18.2266C224.43 17.8828 225.969 17.6172 227.531 17.4297C229.094 17.2266 230.531 17.0781 231.844 16.9844C233.359 16.875 234.836 16.8125 236.273 16.7969C237.336 16.7969 238.43 16.9219 239.555 17.1719C240.695 17.4219 241.805 17.8203 242.883 18.3672C243.961 18.8984 244.977 19.5859 245.93 20.4297C246.883 21.2734 247.711 22.2812 248.414 23.4531C249.133 24.625 249.703 25.9766 250.125 27.5078C250.547 29.0234 250.758 30.7344 250.758 32.6406C250.758 34.75 250.453 36.625 249.844 38.2656C249.234 39.9062 248.398 41.3359 247.336 42.5547C246.289 43.7734 245.062 44.8125 243.656 45.6719C242.25 46.5156 240.742 47.1953 239.133 47.7109C237.523 48.2266 235.859 48.6016 234.141 48.8359C232.438 49.0703 230.758 49.1875 229.102 49.1875ZM245.297 31.7266C245.297 30.9297 245.234 30.0781 245.109 29.1719C245 28.2656 244.805 27.3672 244.523 26.4766C244.242 25.5859 243.867 24.7344 243.398 23.9219C242.93 23.0938 242.344 22.3672 241.641 21.7422C240.953 21.1172 240.133 20.6172 239.18 20.2422C238.227 19.8672 237.125 19.6797 235.875 19.6797C235.219 19.6797 234.531 19.7266 233.812 19.8203V46.0703C235.938 45.7734 237.727 45.2188 239.18 44.4062C240.648 43.5938 241.836 42.5703 242.742 41.3359C243.648 40.0859 244.297 38.6562 244.688 37.0469C245.094 35.4219 245.297 33.6484 245.297 31.7266ZM112.633 95.1562L115.086 93.2344L114.555 82.4531L111.664 80.5625L118.383 79.4219L117.18 91.9531L120.539 94.0469L112.633 95.1562ZM118.555 75.6406C118.555 75.9531 118.492 76.25 118.367 76.5312C118.242 76.8021 118.07 77.0469 117.852 77.2656C117.633 77.474 117.383 77.6406 117.102 77.7656C116.82 77.8802 116.523 77.9375 116.211 77.9375C115.878 77.9375 115.565 77.8802 115.273 77.7656C114.992 77.6406 114.747 77.474 114.539 77.2656C114.331 77.0469 114.164 76.8021 114.039 76.5312C113.914 76.25 113.852 75.9531 113.852 75.6406C113.852 75.3177 113.914 75.0208 114.039 74.75C114.164 74.4688 114.331 74.224 114.539 74.0156C114.747 73.8073 114.992 73.6458 115.273 73.5312C115.565 73.4062 115.878 73.3438 116.211 73.3438C116.523 73.3438 116.82 73.4062 117.102 73.5312C117.383 73.6458 117.633 73.8073 117.852 74.0156C118.07 74.224 118.242 74.4688 118.367 74.75C118.492 75.0208 118.555 75.3177 118.555 75.6406ZM120.086 95.1562L122.133 92.8594L123.195 82.2656L119.898 79.8906L125.211 80.25V81.8438C125.607 81.3125 126.018 80.901 126.445 80.6094C126.883 80.3177 127.284 80.1042 127.648 79.9688C128.076 79.8125 128.497 79.724 128.914 79.7031C129.654 79.7031 130.326 79.8542 130.93 80.1562C131.534 80.4583 132.013 80.875 132.367 81.4062C132.805 80.8854 133.305 80.474 133.867 80.1719C134.43 79.8594 135.039 79.7031 135.695 79.7031C136.289 79.7031 136.841 79.8385 137.352 80.1094C137.862 80.3802 138.299 80.7604 138.664 81.25C139.039 81.7396 139.331 82.3385 139.539 83.0469C139.758 83.7448 139.867 84.5208 139.867 85.375C139.867 85.9896 139.826 86.6302 139.742 87.2969C139.669 87.9635 139.565 88.625 139.43 89.2812C139.305 89.9375 139.148 90.5781 138.961 91.2031C138.773 91.8177 138.57 92.3906 138.352 92.9219L140.57 93.9062L132.82 95.3594L136.242 92.625C136.409 91.5 136.513 90.474 136.555 89.5469C136.607 88.6094 136.633 87.8125 136.633 87.1562C136.633 85.4792 136.43 84.2604 136.023 83.5C135.628 82.7396 135.06 82.3594 134.32 82.3594C133.872 82.3594 133.424 82.5208 132.977 82.8438C133.039 83.0938 133.07 83.3594 133.07 83.6406C133.07 84.276 133.018 84.9323 132.914 85.6094C132.82 86.2865 132.695 86.9531 132.539 87.6094C132.383 88.2656 132.206 88.901 132.008 89.5156C131.81 90.1302 131.612 90.6875 131.414 91.1875L133.617 92.9219H127.32L129.43 91.2188C129.555 90.25 129.643 89.2604 129.695 88.25C129.747 87.2292 129.773 86.2708 129.773 85.375C129.773 84.3125 129.648 83.4792 129.398 82.875C129.159 82.2708 128.721 81.9688 128.086 81.9688C127.763 81.9688 127.461 82.0312 127.18 82.1562C126.909 82.2812 126.654 82.4479 126.414 82.6562C126.185 82.8646 125.966 83.1042 125.758 83.375C125.56 83.6458 125.378 83.9271 125.211 84.2188V92.7344L127.836 94.6094L120.086 95.1562ZM155.836 85.2656C155.836 85.8177 155.805 86.4115 155.742 87.0469C155.68 87.6823 155.586 88.3281 155.461 88.9844C155.346 89.6406 155.206 90.2865 155.039 90.9219C154.883 91.5469 154.711 92.125 154.523 92.6562L157.852 95L151.961 94.75L152.32 92.8281C151.695 93.6094 150.971 94.2083 150.148 94.625C149.336 95.0312 148.393 95.276 147.32 95.3594C146.445 95.4219 145.68 95.3594 145.023 95.1719C144.378 94.9948 143.836 94.7188 143.398 94.3438C142.971 93.9583 142.654 93.4896 142.445 92.9375C142.237 92.375 142.133 91.75 142.133 91.0625C142.133 90.4271 142.289 89.8125 142.602 89.2188C142.914 88.6146 143.362 88.0833 143.945 87.625C144.539 87.1667 145.263 86.8021 146.117 86.5312C146.971 86.25 147.94 86.1094 149.023 86.1094C149.523 86.1094 150.096 86.1562 150.742 86.25C151.398 86.3438 152.018 86.5417 152.602 86.8438C152.549 86.2083 152.451 85.5625 152.305 84.9062C152.169 84.2396 151.966 83.6354 151.695 83.0938C151.424 82.5521 151.07 82.1146 150.633 81.7812C150.206 81.4375 149.669 81.2656 149.023 81.2656C148.471 81.2656 147.935 81.3802 147.414 81.6094C146.893 81.8385 146.404 82.1667 145.945 82.5938C145.497 83.0208 145.091 83.5417 144.727 84.1562C144.362 84.7708 144.055 85.4635 143.805 86.2344L142.492 78.5781L144.477 81.625C144.966 81.0208 145.461 80.5417 145.961 80.1875C146.461 79.8229 146.956 79.5469 147.445 79.3594C147.945 79.1615 148.424 79.0312 148.883 78.9688C149.352 78.9062 149.799 78.875 150.227 78.875C151.029 78.9167 151.768 79.0833 152.445 79.375C153.133 79.6562 153.727 80.0677 154.227 80.6094C154.727 81.1406 155.117 81.7969 155.398 82.5781C155.69 83.3594 155.836 84.2552 155.836 85.2656ZM152.602 90.2656C152.622 89.974 152.638 89.6927 152.648 89.4219C152.659 89.151 152.664 88.8854 152.664 88.625V88.4375C152.289 88.2917 151.909 88.1823 151.523 88.1094C151.148 88.026 150.799 87.9688 150.477 87.9375C150.154 87.8958 149.878 87.875 149.648 87.875C149.43 87.8646 149.284 87.8594 149.211 87.8594C148.617 87.8802 148.102 87.9896 147.664 88.1875C147.227 88.3854 146.862 88.6354 146.57 88.9375C146.289 89.2292 146.076 89.5573 145.93 89.9219C145.794 90.2865 145.727 90.6458 145.727 91C145.727 91.8021 145.919 92.4115 146.305 92.8281C146.701 93.2344 147.273 93.4375 148.023 93.4375C148.523 93.4375 148.997 93.349 149.445 93.1719C149.893 92.9948 150.31 92.7604 150.695 92.4688C151.091 92.1667 151.445 91.8281 151.758 91.4531C152.081 91.0677 152.362 90.6719 152.602 90.2656ZM175.18 78.9062L172.211 81.5C172.326 82.3646 172.409 83.2396 172.461 84.125C172.523 85 172.555 85.875 172.555 86.75C172.555 88.7708 172.451 90.6406 172.242 92.3594C172.044 94.0677 171.674 95.5417 171.133 96.7812C170.602 98.0208 169.862 98.9896 168.914 99.6875C167.966 100.385 166.747 100.734 165.258 100.734C164.977 100.734 164.685 100.693 164.383 100.609C164.091 100.536 163.805 100.438 163.523 100.312C163.253 100.188 162.992 100.047 162.742 99.8906C162.492 99.7344 162.268 99.5781 162.07 99.4219L160.242 101.469L159.82 94.6875C160.362 95.6562 160.898 96.4115 161.43 96.9531C161.971 97.5052 162.471 97.9167 162.93 98.1875C163.388 98.4688 163.799 98.6406 164.164 98.7031C164.529 98.776 164.81 98.8125 165.008 98.8125C165.258 98.8125 165.513 98.7969 165.773 98.7656C166.044 98.7448 166.305 98.6771 166.555 98.5625C166.815 98.4479 167.065 98.2656 167.305 98.0156C167.555 97.776 167.784 97.4427 167.992 97.0156C168.211 96.5885 168.404 96.0469 168.57 95.3906C168.747 94.7448 168.893 93.9531 169.008 93.0156C168.758 93.3802 168.482 93.724 168.18 94.0469C167.878 94.3594 167.539 94.6354 167.164 94.875C166.799 95.1042 166.404 95.2865 165.977 95.4219C165.549 95.5677 165.086 95.6406 164.586 95.6406C163.784 95.6198 163.018 95.4375 162.289 95.0938C161.57 94.75 160.935 94.2604 160.383 93.625C159.841 92.9792 159.409 92.1927 159.086 91.2656C158.763 90.3281 158.602 89.2604 158.602 88.0625C158.602 86.6042 158.773 85.3229 159.117 84.2188C159.461 83.1146 159.93 82.1927 160.523 81.4531C161.117 80.7135 161.81 80.1667 162.602 79.8125C163.404 79.4479 164.258 79.2812 165.164 79.3125C166.018 79.3542 166.763 79.5625 167.398 79.9375C168.034 80.3021 168.57 80.7552 169.008 81.2969C168.987 81.0469 168.961 80.7865 168.93 80.5156C168.909 80.2448 168.883 79.9635 168.852 79.6719L175.18 78.9062ZM169.289 87.7344C169.289 87.1198 169.279 86.5052 169.258 85.8906C169.247 85.2656 169.227 84.6094 169.195 83.9219C169.029 83.5885 168.836 83.2708 168.617 82.9688C168.409 82.6562 168.174 82.3854 167.914 82.1562C167.664 81.9271 167.393 81.7448 167.102 81.6094C166.82 81.474 166.518 81.4062 166.195 81.4062C165.477 81.4062 164.862 81.5833 164.352 81.9375C163.852 82.2917 163.435 82.7812 163.102 83.4062C162.779 84.0312 162.539 84.7708 162.383 85.625C162.237 86.4792 162.164 87.4062 162.164 88.4062C162.164 89.1458 162.227 89.8385 162.352 90.4844C162.477 91.1198 162.659 91.6719 162.898 92.1406C163.138 92.6094 163.44 92.9792 163.805 93.25C164.169 93.5208 164.591 93.6562 165.07 93.6562C165.102 93.6562 165.195 93.651 165.352 93.6406C165.508 93.6198 165.701 93.5729 165.93 93.5C166.169 93.4167 166.435 93.3021 166.727 93.1562C167.018 93.0104 167.315 92.8073 167.617 92.5469C167.919 92.2865 168.211 91.9635 168.492 91.5781C168.773 91.1823 169.029 90.7031 169.258 90.1406C169.279 89.776 169.289 89.3958 169.289 89C169.289 88.5938 169.289 88.1719 169.289 87.7344ZM175.133 95.1562L177.586 93.2344L177.055 82.4531L174.164 80.5625L180.883 79.4219L179.68 91.9531L183.039 94.0469L175.133 95.1562ZM181.055 75.6406C181.055 75.9531 180.992 76.25 180.867 76.5312C180.742 76.8021 180.57 77.0469 180.352 77.2656C180.133 77.474 179.883 77.6406 179.602 77.7656C179.32 77.8802 179.023 77.9375 178.711 77.9375C178.378 77.9375 178.065 77.8802 177.773 77.7656C177.492 77.6406 177.247 77.474 177.039 77.2656C176.831 77.0469 176.664 76.8021 176.539 76.5312C176.414 76.25 176.352 75.9531 176.352 75.6406C176.352 75.3177 176.414 75.0208 176.539 74.75C176.664 74.4688 176.831 74.224 177.039 74.0156C177.247 73.8073 177.492 73.6458 177.773 73.5312C178.065 73.4062 178.378 73.3438 178.711 73.3438C179.023 73.3438 179.32 73.4062 179.602 73.5312C179.883 73.6458 180.133 73.8073 180.352 74.0156C180.57 74.224 180.742 74.4688 180.867 74.75C180.992 75.0208 181.055 75.3177 181.055 75.6406ZM197.82 85.2969C197.82 85.8802 197.794 86.4948 197.742 87.1406C197.69 87.7865 197.612 88.4323 197.508 89.0781C197.404 89.724 197.273 90.3542 197.117 90.9688C196.971 91.5833 196.799 92.1458 196.602 92.6562L199.68 93.6562L191.539 95.25L194.305 93.1719C194.523 92.3698 194.669 91.599 194.742 90.8594C194.826 90.1198 194.867 89.4219 194.867 88.7656C194.867 88.3698 194.852 87.9219 194.82 87.4219C194.799 86.9115 194.742 86.3958 194.648 85.875C194.565 85.3542 194.44 84.8438 194.273 84.3438C194.117 83.8438 193.909 83.401 193.648 83.0156C193.388 82.6198 193.065 82.3073 192.68 82.0781C192.305 81.8385 191.852 81.7188 191.32 81.7188C190.706 81.7188 190.081 81.9219 189.445 82.3281C188.81 82.7344 188.221 83.3333 187.68 84.125V92.7656L190.258 94.6094L182.523 95.1562L184.57 92.8906L185.664 81.5312L182.336 79.8906L187.68 79.3594V81.7188C187.982 81.3021 188.315 80.9115 188.68 80.5469C189.044 80.1823 189.43 79.8698 189.836 79.6094C190.242 79.3385 190.664 79.1302 191.102 78.9844C191.549 78.8281 192.008 78.75 192.477 78.75C193.383 78.75 194.169 78.9167 194.836 79.25C195.503 79.5833 196.055 80.0469 196.492 80.6406C196.94 81.224 197.273 81.9167 197.492 82.7188C197.711 83.5104 197.82 84.3698 197.82 85.2969ZM217.055 78.9062L214.086 81.5C214.201 82.3646 214.284 83.2396 214.336 84.125C214.398 85 214.43 85.875 214.43 86.75C214.43 88.7708 214.326 90.6406 214.117 92.3594C213.919 94.0677 213.549 95.5417 213.008 96.7812C212.477 98.0208 211.737 98.9896 210.789 99.6875C209.841 100.385 208.622 100.734 207.133 100.734C206.852 100.734 206.56 100.693 206.258 100.609C205.966 100.536 205.68 100.438 205.398 100.312C205.128 100.188 204.867 100.047 204.617 99.8906C204.367 99.7344 204.143 99.5781 203.945 99.4219L202.117 101.469L201.695 94.6875C202.237 95.6562 202.773 96.4115 203.305 96.9531C203.846 97.5052 204.346 97.9167 204.805 98.1875C205.263 98.4688 205.674 98.6406 206.039 98.7031C206.404 98.776 206.685 98.8125 206.883 98.8125C207.133 98.8125 207.388 98.7969 207.648 98.7656C207.919 98.7448 208.18 98.6771 208.43 98.5625C208.69 98.4479 208.94 98.2656 209.18 98.0156C209.43 97.776 209.659 97.4427 209.867 97.0156C210.086 96.5885 210.279 96.0469 210.445 95.3906C210.622 94.7448 210.768 93.9531 210.883 93.0156C210.633 93.3802 210.357 93.724 210.055 94.0469C209.753 94.3594 209.414 94.6354 209.039 94.875C208.674 95.1042 208.279 95.2865 207.852 95.4219C207.424 95.5677 206.961 95.6406 206.461 95.6406C205.659 95.6198 204.893 95.4375 204.164 95.0938C203.445 94.75 202.81 94.2604 202.258 93.625C201.716 92.9792 201.284 92.1927 200.961 91.2656C200.638 90.3281 200.477 89.2604 200.477 88.0625C200.477 86.6042 200.648 85.3229 200.992 84.2188C201.336 83.1146 201.805 82.1927 202.398 81.4531C202.992 80.7135 203.685 80.1667 204.477 79.8125C205.279 79.4479 206.133 79.2812 207.039 79.3125C207.893 79.3542 208.638 79.5625 209.273 79.9375C209.909 80.3021 210.445 80.7552 210.883 81.2969C210.862 81.0469 210.836 80.7865 210.805 80.5156C210.784 80.2448 210.758 79.9635 210.727 79.6719L217.055 78.9062ZM211.164 87.7344C211.164 87.1198 211.154 86.5052 211.133 85.8906C211.122 85.2656 211.102 84.6094 211.07 83.9219C210.904 83.5885 210.711 83.2708 210.492 82.9688C210.284 82.6562 210.049 82.3854 209.789 82.1562C209.539 81.9271 209.268 81.7448 208.977 81.6094C208.695 81.474 208.393 81.4062 208.07 81.4062C207.352 81.4062 206.737 81.5833 206.227 81.9375C205.727 82.2917 205.31 82.7812 204.977 83.4062C204.654 84.0312 204.414 84.7708 204.258 85.625C204.112 86.4792 204.039 87.4062 204.039 88.4062C204.039 89.1458 204.102 89.8385 204.227 90.4844C204.352 91.1198 204.534 91.6719 204.773 92.1406C205.013 92.6094 205.315 92.9792 205.68 93.25C206.044 93.5208 206.466 93.6562 206.945 93.6562C206.977 93.6562 207.07 93.651 207.227 93.6406C207.383 93.6198 207.576 93.5729 207.805 93.5C208.044 93.4167 208.31 93.3021 208.602 93.1562C208.893 93.0104 209.19 92.8073 209.492 92.5469C209.794 92.2865 210.086 91.9635 210.367 91.5781C210.648 91.1823 210.904 90.7031 211.133 90.1406C211.154 89.776 211.164 89.3958 211.164 89C211.164 88.5938 211.164 88.1719 211.164 87.7344ZM64 112.641C64 112.953 63.9375 113.25 63.8125 113.531C63.6875 113.802 63.5156 114.047 63.2969 114.266C63.0781 114.474 62.8281 114.641 62.5469 114.766C62.2656 114.88 61.9688 114.938 61.6562 114.938C61.1562 114.938 60.7135 114.812 60.3281 114.562C59.9427 114.302 59.6615 113.969 59.4844 113.562C59.1927 113.188 58.8854 112.875 58.5625 112.625C58.2396 112.365 57.9062 112.156 57.5625 112C57.2188 111.833 56.8698 111.719 56.5156 111.656C56.1719 111.583 55.8385 111.547 55.5156 111.547C54.8594 111.547 54.3125 111.672 53.875 111.922C53.4375 112.172 53.0781 112.542 52.7969 113.031C52.526 113.521 52.3229 114.125 52.1875 114.844C52.0521 115.552 51.9531 116.365 51.8906 117.281L63.8281 116.422L62.625 128.953L65.9844 131.047L58.0781 132.156L60.7031 130.109L59.9688 118.688L51.7969 119.547V119.906C51.7969 120.812 51.7865 121.688 51.7656 122.531C51.7448 123.365 51.7188 124.188 51.6875 125C51.6667 125.812 51.6458 126.615 51.625 127.406C51.6042 128.198 51.5885 128.995 51.5781 129.797L55.1875 131.812H46.7812L49.5938 129.891C49.3646 127.797 49.1823 125.896 49.0469 124.188C48.9219 122.479 48.8281 121.042 48.7656 119.875L46.4844 120.094L48.6406 116.672C48.7344 115.484 48.9896 114.464 49.4062 113.609C49.8333 112.745 50.3906 112.036 51.0781 111.484C51.776 110.922 52.5938 110.505 53.5312 110.234C54.4792 109.964 55.5156 109.828 56.6406 109.828C57.6823 109.828 58.6042 109.896 59.4062 110.031C60.2188 110.156 60.9688 110.26 61.6562 110.344C61.9688 110.344 62.2656 110.406 62.5469 110.531C62.8281 110.646 63.0781 110.807 63.2969 111.016C63.5156 111.224 63.6875 111.469 63.8125 111.75C63.9375 112.021 64 112.318 64 112.641ZM77.2969 121.344C77.2031 120.958 77.0677 120.63 76.8906 120.359C76.724 120.089 76.5312 119.865 76.3125 119.688C76.1042 119.5 75.8802 119.359 75.6406 119.266C75.401 119.161 75.1615 119.083 74.9219 119.031C74.3594 118.917 73.7604 118.922 73.125 119.047C72.9062 119.12 72.6719 119.234 72.4219 119.391C72.2031 119.536 71.9531 119.734 71.6719 119.984C71.3906 120.224 71.0885 120.547 70.7656 120.953L71.0469 130.016L73.8594 131.422L65.5781 132.156L67.7188 129.984L68.5938 119.109L65.2656 117.594L70.6406 116.578L70.7031 118.531C71.0677 118.094 71.4427 117.734 71.8281 117.453C72.2135 117.172 72.5625 116.943 72.875 116.766C73.2396 116.568 73.5938 116.417 73.9375 116.312C74.5625 116.167 75.1979 116.109 75.8438 116.141C76.1146 116.151 76.3958 116.182 76.6875 116.234C76.9896 116.286 77.2917 116.37 77.5938 116.484C77.9062 116.589 78.2083 116.734 78.5 116.922C78.7917 117.099 79.0729 117.323 79.3438 117.594L77.2969 121.344ZM85.8281 116.094C86.224 116.094 86.625 116.13 87.0312 116.203C87.4375 116.266 87.8333 116.365 88.2188 116.5C88.6146 116.625 88.9844 116.781 89.3281 116.969C89.6823 117.146 90 117.344 90.2812 117.562L92.8438 114.406L91.6875 122.203C91.5625 121.661 91.3438 121.13 91.0312 120.609C90.7188 120.078 90.3281 119.604 89.8594 119.188C89.401 118.771 88.8698 118.438 88.2656 118.188C87.6615 117.927 87 117.797 86.2812 117.797C85.8854 117.797 85.5052 117.844 85.1406 117.938C84.776 118.021 84.4531 118.161 84.1719 118.359C83.901 118.557 83.6823 118.807 83.5156 119.109C83.3594 119.411 83.2812 119.771 83.2812 120.188C83.2812 120.688 83.4167 121.094 83.6875 121.406C83.9688 121.719 84.3333 121.984 84.7812 122.203C85.2292 122.411 85.7396 122.594 86.3125 122.75C86.8854 122.896 87.474 123.052 88.0781 123.219C88.6823 123.385 89.2708 123.583 89.8438 123.812C90.4167 124.031 90.9271 124.318 91.375 124.672C91.8229 125.026 92.1823 125.469 92.4531 126C92.7344 126.521 92.875 127.167 92.875 127.938C92.875 128.802 92.7031 129.542 92.3594 130.156C92.026 130.76 91.5938 131.26 91.0625 131.656C90.5312 132.042 89.9427 132.323 89.2969 132.5C88.651 132.677 88.0208 132.766 87.4062 132.766C86.9062 132.766 86.4062 132.714 85.9062 132.609C85.4062 132.505 84.9219 132.359 84.4531 132.172C83.9844 131.984 83.5365 131.76 83.1094 131.5C82.6927 131.24 82.3125 130.958 81.9688 130.656L79.5938 133.828L80.3281 126.078C80.6615 126.786 81.0625 127.448 81.5312 128.062C82 128.677 82.5208 129.214 83.0938 129.672C83.6667 130.12 84.2812 130.474 84.9375 130.734C85.5938 130.984 86.276 131.109 86.9844 131.109C87.8073 131.109 88.4635 130.938 88.9531 130.594C89.4531 130.24 89.7031 129.74 89.7031 129.094C89.7031 128.677 89.5625 128.333 89.2812 128.062C89.0104 127.781 88.6458 127.536 88.1875 127.328C87.7396 127.12 87.2292 126.932 86.6562 126.766C86.0833 126.599 85.4948 126.417 84.8906 126.219C84.2865 126.021 83.6979 125.792 83.125 125.531C82.5521 125.26 82.0365 124.927 81.5781 124.531C81.1302 124.125 80.7656 123.635 80.4844 123.062C80.2135 122.479 80.0781 121.776 80.0781 120.953C80.0781 120.245 80.1823 119.63 80.3906 119.109C80.599 118.589 80.8698 118.151 81.2031 117.797C81.5469 117.432 81.9271 117.141 82.3438 116.922C82.7708 116.693 83.1979 116.521 83.625 116.406C84.0521 116.281 84.4583 116.198 84.8438 116.156C85.2292 116.115 85.5573 116.094 85.8281 116.094ZM95.7188 125.156C95.7188 124.177 95.8177 123.203 96.0156 122.234C96.224 121.255 96.4479 120.359 96.6875 119.547L93.9844 119.719L101.609 111.391C101.005 113.297 100.516 115.016 100.141 116.547L106.219 117.062L105.422 118.938L99.5312 119.359C99.3854 120.12 99.2708 120.797 99.1875 121.391C99.1146 121.974 99.0521 122.469 99 122.875C98.9479 123.354 98.9115 123.771 98.8906 124.125C98.8906 125.167 98.9531 126.104 99.0781 126.938C99.2031 127.771 99.3958 128.484 99.6562 129.078C99.9271 129.661 100.266 130.115 100.672 130.438C101.089 130.75 101.583 130.906 102.156 130.906C102.688 130.906 103.13 130.802 103.484 130.594C103.849 130.375 104.141 130.099 104.359 129.766C104.578 129.422 104.734 129.042 104.828 128.625C104.922 128.198 104.969 127.776 104.969 127.359C104.969 126.974 104.938 126.599 104.875 126.234C105.323 126.464 105.661 126.833 105.891 127.344C106.13 127.844 106.25 128.391 106.25 128.984C106.25 129.599 106.146 130.141 105.938 130.609C105.74 131.078 105.464 131.474 105.109 131.797C104.755 132.109 104.339 132.349 103.859 132.516C103.38 132.682 102.865 132.766 102.312 132.766C101.979 132.766 101.583 132.729 101.125 132.656C100.677 132.583 100.208 132.448 99.7188 132.25C99.2292 132.062 98.7448 131.792 98.2656 131.438C97.7865 131.083 97.3594 130.625 96.9844 130.062C96.6094 129.5 96.3021 128.818 96.0625 128.016C95.8333 127.203 95.7188 126.25 95.7188 125.156ZM115.562 124.156C115.562 122.99 115.745 121.911 116.109 120.922C116.484 119.922 117 119.057 117.656 118.328C118.323 117.599 119.109 117.031 120.016 116.625C120.932 116.208 121.932 116 123.016 116C124.068 116 125.031 116.198 125.906 116.594C126.781 116.979 127.542 117.526 128.188 118.234C128.833 118.943 129.349 119.792 129.734 120.781C130.12 121.771 130.349 122.865 130.422 124.062C130.495 125.344 130.359 126.505 130.016 127.547C129.682 128.578 129.188 129.458 128.531 130.188C127.875 130.906 127.089 131.464 126.172 131.859C125.266 132.255 124.281 132.453 123.219 132.453C122.198 132.453 121.224 132.271 120.297 131.906C119.38 131.531 118.568 130.99 117.859 130.281C117.161 129.573 116.604 128.708 116.188 127.688C115.771 126.656 115.562 125.479 115.562 124.156ZM119.406 124.422C119.406 125.339 119.536 126.167 119.797 126.906C120.057 127.646 120.406 128.276 120.844 128.797C121.281 129.307 121.786 129.703 122.359 129.984C122.932 130.266 123.536 130.406 124.172 130.406C124.807 130.406 125.401 130.271 125.953 130C126.505 129.719 126.984 129.328 127.391 128.828C127.797 128.318 128.115 127.708 128.344 127C128.573 126.292 128.688 125.505 128.688 124.641C128.688 123.786 128.573 122.984 128.344 122.234C128.115 121.474 127.792 120.812 127.375 120.25C126.969 119.688 126.484 119.245 125.922 118.922C125.359 118.599 124.745 118.438 124.078 118.438C123.484 118.438 122.906 118.573 122.344 118.844C121.792 119.115 121.297 119.51 120.859 120.031C120.422 120.542 120.068 121.167 119.797 121.906C119.536 122.646 119.406 123.484 119.406 124.422ZM136.891 119.453V119.906C136.891 120.812 136.88 121.688 136.859 122.531C136.839 123.365 136.812 124.188 136.781 125C136.76 125.812 136.74 126.615 136.719 127.406C136.698 128.198 136.682 128.995 136.672 129.797L140.281 131.812H131.875L134.688 129.891C134.458 127.786 134.276 125.88 134.141 124.172C134.016 122.453 133.922 121.01 133.859 119.844L131.578 120.094L133.734 116.672C133.807 115.693 133.958 114.792 134.188 113.969C134.417 113.135 134.74 112.417 135.156 111.812C135.583 111.208 136.115 110.74 136.75 110.406C137.385 110.062 138.151 109.891 139.047 109.891C139.359 109.891 139.682 109.922 140.016 109.984C140.349 110.036 140.672 110.12 140.984 110.234C141.307 110.349 141.609 110.495 141.891 110.672C142.172 110.849 142.406 111.057 142.594 111.297L145.125 109.438L142.656 115.688C142.635 115.052 142.552 114.51 142.406 114.062C142.271 113.604 142.099 113.224 141.891 112.922C141.693 112.62 141.474 112.385 141.234 112.219C140.995 112.042 140.771 111.911 140.562 111.828C140.354 111.734 140.177 111.677 140.031 111.656C139.885 111.625 139.802 111.609 139.781 111.609C139.281 111.641 138.865 111.802 138.531 112.094C138.198 112.385 137.922 112.786 137.703 113.297C137.495 113.807 137.333 114.417 137.219 115.125C137.104 115.823 137.016 116.594 136.953 117.438H142.656L141.5 118.875L136.891 119.453ZM150.625 132.156L153.078 130.234L152.547 119.453L149.656 117.562L156.375 116.422L155.172 128.953L158.531 131.047L150.625 132.156ZM156.547 112.641C156.547 112.953 156.484 113.25 156.359 113.531C156.234 113.802 156.062 114.047 155.844 114.266C155.625 114.474 155.375 114.641 155.094 114.766C154.812 114.88 154.516 114.938 154.203 114.938C153.87 114.938 153.557 114.88 153.266 114.766C152.984 114.641 152.74 114.474 152.531 114.266C152.323 114.047 152.156 113.802 152.031 113.531C151.906 113.25 151.844 112.953 151.844 112.641C151.844 112.318 151.906 112.021 152.031 111.75C152.156 111.469 152.323 111.224 152.531 111.016C152.74 110.807 152.984 110.646 153.266 110.531C153.557 110.406 153.87 110.344 154.203 110.344C154.516 110.344 154.812 110.406 155.094 110.531C155.375 110.646 155.625 110.807 155.844 111.016C156.062 111.224 156.234 111.469 156.359 111.75C156.484 112.021 156.547 112.318 156.547 112.641ZM160.094 125.156C160.094 124.177 160.193 123.203 160.391 122.234C160.599 121.255 160.823 120.359 161.062 119.547L158.359 119.719L165.984 111.391C165.38 113.297 164.891 115.016 164.516 116.547L170.594 117.062L169.797 118.938L163.906 119.359C163.76 120.12 163.646 120.797 163.562 121.391C163.49 121.974 163.427 122.469 163.375 122.875C163.323 123.354 163.286 123.771 163.266 124.125C163.266 125.167 163.328 126.104 163.453 126.938C163.578 127.771 163.771 128.484 164.031 129.078C164.302 129.661 164.641 130.115 165.047 130.438C165.464 130.75 165.958 130.906 166.531 130.906C167.062 130.906 167.505 130.802 167.859 130.594C168.224 130.375 168.516 130.099 168.734 129.766C168.953 129.422 169.109 129.042 169.203 128.625C169.297 128.198 169.344 127.776 169.344 127.359C169.344 126.974 169.312 126.599 169.25 126.234C169.698 126.464 170.036 126.833 170.266 127.344C170.505 127.844 170.625 128.391 170.625 128.984C170.625 129.599 170.521 130.141 170.312 130.609C170.115 131.078 169.839 131.474 169.484 131.797C169.13 132.109 168.714 132.349 168.234 132.516C167.755 132.682 167.24 132.766 166.688 132.766C166.354 132.766 165.958 132.729 165.5 132.656C165.052 132.583 164.583 132.448 164.094 132.25C163.604 132.062 163.12 131.792 162.641 131.438C162.161 131.083 161.734 130.625 161.359 130.062C160.984 129.5 160.677 128.818 160.438 128.016C160.208 127.203 160.094 126.25 160.094 125.156ZM177.734 116.094C178.13 116.094 178.531 116.13 178.938 116.203C179.344 116.266 179.74 116.365 180.125 116.5C180.521 116.625 180.891 116.781 181.234 116.969C181.589 117.146 181.906 117.344 182.188 117.562L184.75 114.406L183.594 122.203C183.469 121.661 183.25 121.13 182.938 120.609C182.625 120.078 182.234 119.604 181.766 119.188C181.307 118.771 180.776 118.438 180.172 118.188C179.568 117.927 178.906 117.797 178.188 117.797C177.792 117.797 177.411 117.844 177.047 117.938C176.682 118.021 176.359 118.161 176.078 118.359C175.807 118.557 175.589 118.807 175.422 119.109C175.266 119.411 175.188 119.771 175.188 120.188C175.188 120.688 175.323 121.094 175.594 121.406C175.875 121.719 176.24 121.984 176.688 122.203C177.135 122.411 177.646 122.594 178.219 122.75C178.792 122.896 179.38 123.052 179.984 123.219C180.589 123.385 181.177 123.583 181.75 123.812C182.323 124.031 182.833 124.318 183.281 124.672C183.729 125.026 184.089 125.469 184.359 126C184.641 126.521 184.781 127.167 184.781 127.938C184.781 128.802 184.609 129.542 184.266 130.156C183.932 130.76 183.5 131.26 182.969 131.656C182.438 132.042 181.849 132.323 181.203 132.5C180.557 132.677 179.927 132.766 179.312 132.766C178.812 132.766 178.312 132.714 177.812 132.609C177.312 132.505 176.828 132.359 176.359 132.172C175.891 131.984 175.443 131.76 175.016 131.5C174.599 131.24 174.219 130.958 173.875 130.656L171.5 133.828L172.234 126.078C172.568 126.786 172.969 127.448 173.438 128.062C173.906 128.677 174.427 129.214 175 129.672C175.573 130.12 176.188 130.474 176.844 130.734C177.5 130.984 178.182 131.109 178.891 131.109C179.714 131.109 180.37 130.938 180.859 130.594C181.359 130.24 181.609 129.74 181.609 129.094C181.609 128.677 181.469 128.333 181.188 128.062C180.917 127.781 180.552 127.536 180.094 127.328C179.646 127.12 179.135 126.932 178.562 126.766C177.99 126.599 177.401 126.417 176.797 126.219C176.193 126.021 175.604 125.792 175.031 125.531C174.458 125.26 173.943 124.927 173.484 124.531C173.036 124.125 172.672 123.635 172.391 123.062C172.12 122.479 171.984 121.776 171.984 120.953C171.984 120.245 172.089 119.63 172.297 119.109C172.505 118.589 172.776 118.151 173.109 117.797C173.453 117.432 173.833 117.141 174.25 116.922C174.677 116.693 175.104 116.521 175.531 116.406C175.958 116.281 176.365 116.198 176.75 116.156C177.135 116.115 177.464 116.094 177.734 116.094ZM209.891 118.109L206.656 119.234L200 125.562C200.417 126.073 200.818 126.51 201.203 126.875C201.589 127.24 201.953 127.552 202.297 127.812C202.641 128.073 202.958 128.281 203.25 128.438C203.552 128.594 203.828 128.714 204.078 128.797C204.651 128.995 205.172 129.057 205.641 128.984C205.974 128.964 206.333 128.859 206.719 128.672C207.052 128.516 207.432 128.266 207.859 127.922C208.297 127.578 208.76 127.083 209.25 126.438C209.062 127.594 208.786 128.557 208.422 129.328C208.068 130.089 207.693 130.698 207.297 131.156C206.901 131.604 206.521 131.922 206.156 132.109C205.802 132.297 205.531 132.391 205.344 132.391C204.802 132.307 204.203 132.062 203.547 131.656C203.266 131.49 202.953 131.276 202.609 131.016C202.276 130.755 201.917 130.443 201.531 130.078C201.156 129.714 200.755 129.286 200.328 128.797C199.901 128.297 199.464 127.724 199.016 127.078L199.047 130.078L201.125 131.812H193.312L195.719 129.859L196.828 112.453L193.344 110.719L198.875 109.797L198.984 123.938L203.359 118.344L201.562 116.359L209.891 118.109ZM209.719 132.156L212.172 130.234L211.641 119.453L208.75 117.562L215.469 116.422L214.266 128.953L217.625 131.047L209.719 132.156ZM215.641 112.641C215.641 112.953 215.578 113.25 215.453 113.531C215.328 113.802 215.156 114.047 214.938 114.266C214.719 114.474 214.469 114.641 214.188 114.766C213.906 114.88 213.609 114.938 213.297 114.938C212.964 114.938 212.651 114.88 212.359 114.766C212.078 114.641 211.833 114.474 211.625 114.266C211.417 114.047 211.25 113.802 211.125 113.531C211 113.25 210.938 112.953 210.938 112.641C210.938 112.318 211 112.021 211.125 111.75C211.25 111.469 211.417 111.224 211.625 111.016C211.833 110.807 212.078 110.646 212.359 110.531C212.651 110.406 212.964 110.344 213.297 110.344C213.609 110.344 213.906 110.406 214.188 110.531C214.469 110.646 214.719 110.807 214.938 111.016C215.156 111.224 215.328 111.469 215.453 111.75C215.578 112.021 215.641 112.318 215.641 112.641ZM232.406 122.297C232.406 122.88 232.38 123.495 232.328 124.141C232.276 124.786 232.198 125.432 232.094 126.078C231.99 126.724 231.859 127.354 231.703 127.969C231.557 128.583 231.385 129.146 231.188 129.656L234.266 130.656L226.125 132.25L228.891 130.172C229.109 129.37 229.255 128.599 229.328 127.859C229.411 127.12 229.453 126.422 229.453 125.766C229.453 125.37 229.438 124.922 229.406 124.422C229.385 123.911 229.328 123.396 229.234 122.875C229.151 122.354 229.026 121.844 228.859 121.344C228.703 120.844 228.495 120.401 228.234 120.016C227.974 119.62 227.651 119.307 227.266 119.078C226.891 118.839 226.438 118.719 225.906 118.719C225.292 118.719 224.667 118.922 224.031 119.328C223.396 119.734 222.807 120.333 222.266 121.125V129.766L224.844 131.609L217.109 132.156L219.156 129.891L220.25 118.531L216.922 116.891L222.266 116.359V118.719C222.568 118.302 222.901 117.911 223.266 117.547C223.63 117.182 224.016 116.87 224.422 116.609C224.828 116.339 225.25 116.13 225.688 115.984C226.135 115.828 226.594 115.75 227.062 115.75C227.969 115.75 228.755 115.917 229.422 116.25C230.089 116.583 230.641 117.047 231.078 117.641C231.526 118.224 231.859 118.917 232.078 119.719C232.297 120.51 232.406 121.37 232.406 122.297ZM248.031 130.047L251.484 131.328L245.828 132.422L245.891 129.375C245.641 129.802 245.354 130.214 245.031 130.609C244.708 130.995 244.344 131.339 243.938 131.641C243.542 131.943 243.099 132.182 242.609 132.359C242.12 132.547 241.589 132.641 241.016 132.641C240.203 132.62 239.432 132.438 238.703 132.094C237.984 131.75 237.349 131.26 236.797 130.625C236.255 129.979 235.823 129.193 235.5 128.266C235.188 127.328 235.031 126.26 235.031 125.062C235.031 123.604 235.203 122.328 235.547 121.234C235.891 120.141 236.359 119.229 236.953 118.5C237.547 117.771 238.24 117.224 239.031 116.859C239.833 116.495 240.688 116.312 241.594 116.312C242.51 116.312 243.359 116.51 244.141 116.906C244.932 117.292 245.578 117.812 246.078 118.469L246.141 114.781L242.328 113.344L250.047 111.969L248.031 130.047ZM241.5 130.656C241.531 130.656 241.635 130.646 241.812 130.625C241.99 130.604 242.208 130.552 242.469 130.469C242.729 130.375 243.016 130.24 243.328 130.062C243.651 129.885 243.969 129.641 244.281 129.328C244.604 129.005 244.911 128.604 245.203 128.125C245.495 127.646 245.745 127.062 245.953 126.375L246.047 121.281C245.891 120.906 245.693 120.547 245.453 120.203C245.224 119.859 244.964 119.557 244.672 119.297C244.391 119.026 244.073 118.812 243.719 118.656C243.375 118.49 243.01 118.406 242.625 118.406C241.906 118.406 241.292 118.583 240.781 118.938C240.281 119.292 239.865 119.781 239.531 120.406C239.208 121.031 238.969 121.771 238.812 122.625C238.667 123.479 238.594 124.406 238.594 125.406C238.594 126.146 238.656 126.839 238.781 127.484C238.906 128.12 239.089 128.672 239.328 129.141C239.568 129.609 239.87 129.979 240.234 130.25C240.599 130.521 241.021 130.656 241.5 130.656ZM260 132.156L262.453 130.234L261.922 119.453L259.031 117.562L265.75 116.422L264.547 128.953L267.906 131.047L260 132.156ZM265.922 112.641C265.922 112.953 265.859 113.25 265.734 113.531C265.609 113.802 265.438 114.047 265.219 114.266C265 114.474 264.75 114.641 264.469 114.766C264.188 114.88 263.891 114.938 263.578 114.938C263.245 114.938 262.932 114.88 262.641 114.766C262.359 114.641 262.115 114.474 261.906 114.266C261.698 114.047 261.531 113.802 261.406 113.531C261.281 113.25 261.219 112.953 261.219 112.641C261.219 112.318 261.281 112.021 261.406 111.75C261.531 111.469 261.698 111.224 261.906 111.016C262.115 110.807 262.359 110.646 262.641 110.531C262.932 110.406 263.245 110.344 263.578 110.344C263.891 110.344 264.188 110.406 264.469 110.531C264.75 110.646 265 110.807 265.219 111.016C265.438 111.224 265.609 111.469 265.734 111.75C265.859 112.021 265.922 112.318 265.922 112.641ZM282.688 122.297C282.688 122.88 282.661 123.495 282.609 124.141C282.557 124.786 282.479 125.432 282.375 126.078C282.271 126.724 282.141 127.354 281.984 127.969C281.839 128.583 281.667 129.146 281.469 129.656L284.547 130.656L276.406 132.25L279.172 130.172C279.391 129.37 279.536 128.599 279.609 127.859C279.693 127.12 279.734 126.422 279.734 125.766C279.734 125.37 279.719 124.922 279.688 124.422C279.667 123.911 279.609 123.396 279.516 122.875C279.432 122.354 279.307 121.844 279.141 121.344C278.984 120.844 278.776 120.401 278.516 120.016C278.255 119.62 277.932 119.307 277.547 119.078C277.172 118.839 276.719 118.719 276.188 118.719C275.573 118.719 274.948 118.922 274.312 119.328C273.677 119.734 273.089 120.333 272.547 121.125V129.766L275.125 131.609L267.391 132.156L269.438 129.891L270.531 118.531L267.203 116.891L272.547 116.359V118.719C272.849 118.302 273.182 117.911 273.547 117.547C273.911 117.182 274.297 116.87 274.703 116.609C275.109 116.339 275.531 116.13 275.969 115.984C276.417 115.828 276.875 115.75 277.344 115.75C278.25 115.75 279.036 115.917 279.703 116.25C280.37 116.583 280.922 117.047 281.359 117.641C281.807 118.224 282.141 118.917 282.359 119.719C282.578 120.51 282.688 121.37 282.688 122.297ZM59.25 153.094C59.6458 153.094 60.0469 153.13 60.4531 153.203C60.8594 153.266 61.2552 153.365 61.6406 153.5C62.0365 153.625 62.4062 153.781 62.75 153.969C63.1042 154.146 63.4219 154.344 63.7031 154.562L66.2656 151.406L65.1094 159.203C64.9844 158.661 64.7656 158.13 64.4531 157.609C64.1406 157.078 63.75 156.604 63.2812 156.188C62.8229 155.771 62.2917 155.438 61.6875 155.188C61.0833 154.927 60.4219 154.797 59.7031 154.797C59.3073 154.797 58.9271 154.844 58.5625 154.938C58.1979 155.021 57.875 155.161 57.5938 155.359C57.3229 155.557 57.1042 155.807 56.9375 156.109C56.7812 156.411 56.7031 156.771 56.7031 157.188C56.7031 157.688 56.8385 158.094 57.1094 158.406C57.3906 158.719 57.7552 158.984 58.2031 159.203C58.651 159.411 59.1615 159.594 59.7344 159.75C60.3073 159.896 60.8958 160.052 61.5 160.219C62.1042 160.385 62.6927 160.583 63.2656 160.812C63.8385 161.031 64.349 161.318 64.7969 161.672C65.2448 162.026 65.6042 162.469 65.875 163C66.1562 163.521 66.2969 164.167 66.2969 164.938C66.2969 165.802 66.125 166.542 65.7812 167.156C65.4479 167.76 65.0156 168.26 64.4844 168.656C63.9531 169.042 63.3646 169.323 62.7188 169.5C62.0729 169.677 61.4427 169.766 60.8281 169.766C60.3281 169.766 59.8281 169.714 59.3281 169.609C58.8281 169.505 58.3438 169.359 57.875 169.172C57.4062 168.984 56.9583 168.76 56.5312 168.5C56.1146 168.24 55.7344 167.958 55.3906 167.656L53.0156 170.828L53.75 163.078C54.0833 163.786 54.4844 164.448 54.9531 165.062C55.4219 165.677 55.9427 166.214 56.5156 166.672C57.0885 167.12 57.7031 167.474 58.3594 167.734C59.0156 167.984 59.6979 168.109 60.4062 168.109C61.2292 168.109 61.8854 167.938 62.375 167.594C62.875 167.24 63.125 166.74 63.125 166.094C63.125 165.677 62.9844 165.333 62.7031 165.062C62.4323 164.781 62.0677 164.536 61.6094 164.328C61.1615 164.12 60.651 163.932 60.0781 163.766C59.5052 163.599 58.9167 163.417 58.3125 163.219C57.7083 163.021 57.1198 162.792 56.5469 162.531C55.974 162.26 55.4583 161.927 55 161.531C54.5521 161.125 54.1875 160.635 53.9062 160.062C53.6354 159.479 53.5 158.776 53.5 157.953C53.5 157.245 53.6042 156.63 53.8125 156.109C54.0208 155.589 54.2917 155.151 54.625 154.797C54.9688 154.432 55.349 154.141 55.7656 153.922C56.1927 153.693 56.6198 153.521 57.0469 153.406C57.474 153.281 57.8802 153.198 58.2656 153.156C58.651 153.115 58.9792 153.094 59.25 153.094ZM67.9531 161.156C67.9531 159.99 68.1354 158.911 68.5 157.922C68.875 156.922 69.3906 156.057 70.0469 155.328C70.7135 154.599 71.5 154.031 72.4062 153.625C73.3229 153.208 74.3229 153 75.4062 153C76.4583 153 77.4219 153.198 78.2969 153.594C79.1719 153.979 79.9323 154.526 80.5781 155.234C81.224 155.943 81.7396 156.792 82.125 157.781C82.5104 158.771 82.7396 159.865 82.8125 161.062C82.8854 162.344 82.75 163.505 82.4062 164.547C82.0729 165.578 81.5781 166.458 80.9219 167.188C80.2656 167.906 79.4792 168.464 78.5625 168.859C77.6562 169.255 76.6719 169.453 75.6094 169.453C74.5885 169.453 73.6146 169.271 72.6875 168.906C71.7708 168.531 70.9583 167.99 70.25 167.281C69.5521 166.573 68.9948 165.708 68.5781 164.688C68.1615 163.656 67.9531 162.479 67.9531 161.156ZM71.7969 161.422C71.7969 162.339 71.9271 163.167 72.1875 163.906C72.4479 164.646 72.7969 165.276 73.2344 165.797C73.6719 166.307 74.1771 166.703 74.75 166.984C75.3229 167.266 75.9271 167.406 76.5625 167.406C77.1979 167.406 77.7917 167.271 78.3438 167C78.8958 166.719 79.375 166.328 79.7812 165.828C80.1875 165.318 80.5052 164.708 80.7344 164C80.9635 163.292 81.0781 162.505 81.0781 161.641C81.0781 160.786 80.9635 159.984 80.7344 159.234C80.5052 158.474 80.1823 157.812 79.7656 157.25C79.3594 156.688 78.875 156.245 78.3125 155.922C77.75 155.599 77.1354 155.438 76.4688 155.438C75.875 155.438 75.2969 155.573 74.7344 155.844C74.1823 156.115 73.6875 156.51 73.25 157.031C72.8125 157.542 72.4583 158.167 72.1875 158.906C71.9271 159.646 71.7969 160.484 71.7969 161.422ZM98.1562 153.797L98.7656 167.234L101.578 168.547L95.1719 169.734L95.4688 165.156C95.1771 165.771 94.8438 166.359 94.4688 166.922C94.0938 167.474 93.6719 167.964 93.2031 168.391C92.7344 168.807 92.2188 169.141 91.6562 169.391C91.1042 169.641 90.5052 169.766 89.8594 169.766C89.0885 169.766 88.4115 169.63 87.8281 169.359C87.2448 169.089 86.7552 168.719 86.3594 168.25C85.9635 167.771 85.6615 167.214 85.4531 166.578C85.2552 165.932 85.1562 165.245 85.1562 164.516C85.1562 163.839 85.2083 163.135 85.3125 162.406C85.4167 161.677 85.5573 160.958 85.7344 160.25C85.9219 159.531 86.1406 158.839 86.3906 158.172C86.651 157.495 86.9323 156.87 87.2344 156.297L83.9375 155.531L90.125 153.422C89.7292 154.474 89.4219 155.484 89.2031 156.453C88.9948 157.411 88.8385 158.266 88.7344 159.016C88.6198 159.891 88.5469 160.703 88.5156 161.453C88.5156 162.422 88.5833 163.26 88.7188 163.969C88.8542 164.667 89.0417 165.25 89.2812 165.719C89.5208 166.177 89.8073 166.521 90.1406 166.75C90.474 166.969 90.8385 167.078 91.2344 167.078C91.8385 167.078 92.3802 166.917 92.8594 166.594C93.3385 166.271 93.7604 165.839 94.125 165.297C94.5 164.745 94.8177 164.104 95.0781 163.375C95.349 162.646 95.5677 161.875 95.7344 161.062C95.9115 160.25 96.0417 159.422 96.125 158.578C96.2083 157.734 96.2552 156.922 96.2656 156.141L92.875 153.797H98.1562ZM102.734 162.156C102.734 161.177 102.833 160.203 103.031 159.234C103.24 158.255 103.464 157.359 103.703 156.547L101 156.719L108.625 148.391C108.021 150.297 107.531 152.016 107.156 153.547L113.234 154.062L112.438 155.938L106.547 156.359C106.401 157.12 106.286 157.797 106.203 158.391C106.13 158.974 106.068 159.469 106.016 159.875C105.964 160.354 105.927 160.771 105.906 161.125C105.906 162.167 105.969 163.104 106.094 163.938C106.219 164.771 106.411 165.484 106.672 166.078C106.943 166.661 107.281 167.115 107.688 167.438C108.104 167.75 108.599 167.906 109.172 167.906C109.703 167.906 110.146 167.802 110.5 167.594C110.865 167.375 111.156 167.099 111.375 166.766C111.594 166.422 111.75 166.042 111.844 165.625C111.938 165.198 111.984 164.776 111.984 164.359C111.984 163.974 111.953 163.599 111.891 163.234C112.339 163.464 112.677 163.833 112.906 164.344C113.146 164.844 113.266 165.391 113.266 165.984C113.266 166.599 113.161 167.141 112.953 167.609C112.755 168.078 112.479 168.474 112.125 168.797C111.771 169.109 111.354 169.349 110.875 169.516C110.396 169.682 109.88 169.766 109.328 169.766C108.995 169.766 108.599 169.729 108.141 169.656C107.693 169.583 107.224 169.448 106.734 169.25C106.245 169.062 105.76 168.792 105.281 168.438C104.802 168.083 104.375 167.625 104 167.062C103.625 166.5 103.318 165.818 103.078 165.016C102.849 164.203 102.734 163.25 102.734 162.156ZM112.766 168.812L115.172 166.859L116.281 149.453L112.797 147.719L118.328 146.797L118.391 155.594C118.745 155.083 119.135 154.667 119.562 154.344C119.99 154.01 120.406 153.75 120.812 153.562C121.229 153.375 121.609 153.245 121.953 153.172C122.307 153.099 122.583 153.062 122.781 153.062C123.76 153.062 124.589 153.24 125.266 153.594C125.943 153.938 126.49 154.417 126.906 155.031C127.333 155.646 127.641 156.375 127.828 157.219C128.026 158.052 128.125 158.958 128.125 159.938C128.125 160.479 128.078 161.057 127.984 161.672C127.901 162.286 127.786 162.906 127.641 163.531C127.495 164.146 127.328 164.745 127.141 165.328C126.964 165.901 126.781 166.422 126.594 166.891L129.688 168.609L121.594 169.453L125.016 166.344C125.161 165.573 125.266 164.849 125.328 164.172C125.401 163.495 125.438 162.865 125.438 162.281C125.438 161.99 125.417 161.635 125.375 161.219C125.344 160.802 125.276 160.37 125.172 159.922C125.068 159.464 124.927 159.01 124.75 158.562C124.573 158.115 124.339 157.714 124.047 157.359C123.766 157.005 123.422 156.719 123.016 156.5C122.62 156.281 122.146 156.172 121.594 156.172C121.052 156.172 120.495 156.292 119.922 156.531C119.359 156.771 118.849 157.151 118.391 157.672L118.5 167.078L120.578 168.812H112.766ZM140.172 162.156C140.172 161.177 140.271 160.203 140.469 159.234C140.677 158.255 140.901 157.359 141.141 156.547L138.438 156.719L146.062 148.391C145.458 150.297 144.969 152.016 144.594 153.547L150.672 154.062L149.875 155.938L143.984 156.359C143.839 157.12 143.724 157.797 143.641 158.391C143.568 158.974 143.505 159.469 143.453 159.875C143.401 160.354 143.365 160.771 143.344 161.125C143.344 162.167 143.406 163.104 143.531 163.938C143.656 164.771 143.849 165.484 144.109 166.078C144.38 166.661 144.719 167.115 145.125 167.438C145.542 167.75 146.036 167.906 146.609 167.906C147.141 167.906 147.583 167.802 147.938 167.594C148.302 167.375 148.594 167.099 148.812 166.766C149.031 166.422 149.188 166.042 149.281 165.625C149.375 165.198 149.422 164.776 149.422 164.359C149.422 163.974 149.391 163.599 149.328 163.234C149.776 163.464 150.115 163.833 150.344 164.344C150.583 164.844 150.703 165.391 150.703 165.984C150.703 166.599 150.599 167.141 150.391 167.609C150.193 168.078 149.917 168.474 149.562 168.797C149.208 169.109 148.792 169.349 148.312 169.516C147.833 169.682 147.318 169.766 146.766 169.766C146.432 169.766 146.036 169.729 145.578 169.656C145.13 169.583 144.661 169.448 144.172 169.25C143.682 169.062 143.198 168.792 142.719 168.438C142.24 168.083 141.812 167.625 141.438 167.062C141.062 166.5 140.755 165.818 140.516 165.016C140.286 164.203 140.172 163.25 140.172 162.156ZM165.375 159.266C165.375 159.818 165.344 160.411 165.281 161.047C165.219 161.682 165.125 162.328 165 162.984C164.885 163.641 164.745 164.286 164.578 164.922C164.422 165.547 164.25 166.125 164.062 166.656L167.391 169L161.5 168.75L161.859 166.828C161.234 167.609 160.51 168.208 159.688 168.625C158.875 169.031 157.932 169.276 156.859 169.359C155.984 169.422 155.219 169.359 154.562 169.172C153.917 168.995 153.375 168.719 152.938 168.344C152.51 167.958 152.193 167.49 151.984 166.938C151.776 166.375 151.672 165.75 151.672 165.062C151.672 164.427 151.828 163.812 152.141 163.219C152.453 162.615 152.901 162.083 153.484 161.625C154.078 161.167 154.802 160.802 155.656 160.531C156.51 160.25 157.479 160.109 158.562 160.109C159.062 160.109 159.635 160.156 160.281 160.25C160.938 160.344 161.557 160.542 162.141 160.844C162.089 160.208 161.99 159.562 161.844 158.906C161.708 158.24 161.505 157.635 161.234 157.094C160.964 156.552 160.609 156.115 160.172 155.781C159.745 155.438 159.208 155.266 158.562 155.266C158.01 155.266 157.474 155.38 156.953 155.609C156.432 155.839 155.943 156.167 155.484 156.594C155.036 157.021 154.63 157.542 154.266 158.156C153.901 158.771 153.594 159.464 153.344 160.234L152.031 152.578L154.016 155.625C154.505 155.021 155 154.542 155.5 154.188C156 153.823 156.495 153.547 156.984 153.359C157.484 153.161 157.964 153.031 158.422 152.969C158.891 152.906 159.339 152.875 159.766 152.875C160.568 152.917 161.307 153.083 161.984 153.375C162.672 153.656 163.266 154.068 163.766 154.609C164.266 155.141 164.656 155.797 164.938 156.578C165.229 157.359 165.375 158.255 165.375 159.266ZM162.141 164.266C162.161 163.974 162.177 163.693 162.188 163.422C162.198 163.151 162.203 162.885 162.203 162.625V162.438C161.828 162.292 161.448 162.182 161.062 162.109C160.688 162.026 160.339 161.969 160.016 161.938C159.693 161.896 159.417 161.875 159.188 161.875C158.969 161.865 158.823 161.859 158.75 161.859C158.156 161.88 157.641 161.99 157.203 162.188C156.766 162.385 156.401 162.635 156.109 162.938C155.828 163.229 155.615 163.557 155.469 163.922C155.333 164.286 155.266 164.646 155.266 165C155.266 165.802 155.458 166.411 155.844 166.828C156.24 167.234 156.812 167.438 157.562 167.438C158.062 167.438 158.536 167.349 158.984 167.172C159.432 166.995 159.849 166.76 160.234 166.469C160.63 166.167 160.984 165.828 161.297 165.453C161.62 165.068 161.901 164.672 162.141 164.266ZM167.188 169.156L169.234 166.859L170.297 156.266L167 153.891L172.312 154.25V155.844C172.708 155.312 173.12 154.901 173.547 154.609C173.984 154.318 174.385 154.104 174.75 153.969C175.177 153.812 175.599 153.724 176.016 153.703C176.755 153.703 177.427 153.854 178.031 154.156C178.635 154.458 179.115 154.875 179.469 155.406C179.906 154.885 180.406 154.474 180.969 154.172C181.531 153.859 182.141 153.703 182.797 153.703C183.391 153.703 183.943 153.839 184.453 154.109C184.964 154.38 185.401 154.76 185.766 155.25C186.141 155.74 186.432 156.339 186.641 157.047C186.859 157.745 186.969 158.521 186.969 159.375C186.969 159.99 186.927 160.63 186.844 161.297C186.771 161.964 186.667 162.625 186.531 163.281C186.406 163.938 186.25 164.578 186.062 165.203C185.875 165.818 185.672 166.391 185.453 166.922L187.672 167.906L179.922 169.359L183.344 166.625C183.51 165.5 183.615 164.474 183.656 163.547C183.708 162.609 183.734 161.812 183.734 161.156C183.734 159.479 183.531 158.26 183.125 157.5C182.729 156.74 182.161 156.359 181.422 156.359C180.974 156.359 180.526 156.521 180.078 156.844C180.141 157.094 180.172 157.359 180.172 157.641C180.172 158.276 180.12 158.932 180.016 159.609C179.922 160.286 179.797 160.953 179.641 161.609C179.484 162.266 179.307 162.901 179.109 163.516C178.911 164.13 178.714 164.688 178.516 165.188L180.719 166.922H174.422L176.531 165.219C176.656 164.25 176.745 163.26 176.797 162.25C176.849 161.229 176.875 160.271 176.875 159.375C176.875 158.312 176.75 157.479 176.5 156.875C176.26 156.271 175.823 155.969 175.188 155.969C174.865 155.969 174.562 156.031 174.281 156.156C174.01 156.281 173.755 156.448 173.516 156.656C173.286 156.865 173.068 157.104 172.859 157.375C172.661 157.646 172.479 157.927 172.312 158.219V166.734L174.938 168.609L167.188 169.156ZM188.922 169.156L191.375 167.234L190.844 156.453L187.953 154.562L194.672 153.422L193.469 165.953L196.828 168.047L188.922 169.156ZM194.844 149.641C194.844 149.953 194.781 150.25 194.656 150.531C194.531 150.802 194.359 151.047 194.141 151.266C193.922 151.474 193.672 151.641 193.391 151.766C193.109 151.88 192.812 151.938 192.5 151.938C192.167 151.938 191.854 151.88 191.562 151.766C191.281 151.641 191.036 151.474 190.828 151.266C190.62 151.047 190.453 150.802 190.328 150.531C190.203 150.25 190.141 149.953 190.141 149.641C190.141 149.318 190.203 149.021 190.328 148.75C190.453 148.469 190.62 148.224 190.828 148.016C191.036 147.807 191.281 147.646 191.562 147.531C191.854 147.406 192.167 147.344 192.5 147.344C192.812 147.344 193.109 147.406 193.391 147.531C193.672 147.646 193.922 147.807 194.141 148.016C194.359 148.224 194.531 148.469 194.656 148.75C194.781 149.021 194.844 149.318 194.844 149.641ZM200.891 167.047L204.016 168.297L196.188 169.062L199 166.859L198.516 149.984L194.906 148.422L202.812 147.375L200.891 167.047ZM219.234 159.297C219.234 159.88 219.208 160.495 219.156 161.141C219.104 161.786 219.026 162.432 218.922 163.078C218.818 163.724 218.688 164.354 218.531 164.969C218.385 165.583 218.214 166.146 218.016 166.656L221.094 167.656L212.953 169.25L215.719 167.172C215.938 166.37 216.083 165.599 216.156 164.859C216.24 164.12 216.281 163.422 216.281 162.766C216.281 162.37 216.266 161.922 216.234 161.422C216.214 160.911 216.156 160.396 216.062 159.875C215.979 159.354 215.854 158.844 215.688 158.344C215.531 157.844 215.323 157.401 215.062 157.016C214.802 156.62 214.479 156.307 214.094 156.078C213.719 155.839 213.266 155.719 212.734 155.719C212.12 155.719 211.495 155.922 210.859 156.328C210.224 156.734 209.635 157.333 209.094 158.125V166.766L211.672 168.609L203.938 169.156L205.984 166.891L207.078 155.531L203.75 153.891L209.094 153.359V155.719C209.396 155.302 209.729 154.911 210.094 154.547C210.458 154.182 210.844 153.87 211.25 153.609C211.656 153.339 212.078 153.13 212.516 152.984C212.964 152.828 213.422 152.75 213.891 152.75C214.797 152.75 215.583 152.917 216.25 153.25C216.917 153.583 217.469 154.047 217.906 154.641C218.354 155.224 218.688 155.917 218.906 156.719C219.125 157.51 219.234 158.37 219.234 159.297ZM235.5 159.266C235.5 159.818 235.469 160.411 235.406 161.047C235.344 161.682 235.25 162.328 235.125 162.984C235.01 163.641 234.87 164.286 234.703 164.922C234.547 165.547 234.375 166.125 234.188 166.656L237.516 169L231.625 168.75L231.984 166.828C231.359 167.609 230.635 168.208 229.812 168.625C229 169.031 228.057 169.276 226.984 169.359C226.109 169.422 225.344 169.359 224.688 169.172C224.042 168.995 223.5 168.719 223.062 168.344C222.635 167.958 222.318 167.49 222.109 166.938C221.901 166.375 221.797 165.75 221.797 165.062C221.797 164.427 221.953 163.812 222.266 163.219C222.578 162.615 223.026 162.083 223.609 161.625C224.203 161.167 224.927 160.802 225.781 160.531C226.635 160.25 227.604 160.109 228.688 160.109C229.188 160.109 229.76 160.156 230.406 160.25C231.062 160.344 231.682 160.542 232.266 160.844C232.214 160.208 232.115 159.562 231.969 158.906C231.833 158.24 231.63 157.635 231.359 157.094C231.089 156.552 230.734 156.115 230.297 155.781C229.87 155.438 229.333 155.266 228.688 155.266C228.135 155.266 227.599 155.38 227.078 155.609C226.557 155.839 226.068 156.167 225.609 156.594C225.161 157.021 224.755 157.542 224.391 158.156C224.026 158.771 223.719 159.464 223.469 160.234L222.156 152.578L224.141 155.625C224.63 155.021 225.125 154.542 225.625 154.188C226.125 153.823 226.62 153.547 227.109 153.359C227.609 153.161 228.089 153.031 228.547 152.969C229.016 152.906 229.464 152.875 229.891 152.875C230.693 152.917 231.432 153.083 232.109 153.375C232.797 153.656 233.391 154.068 233.891 154.609C234.391 155.141 234.781 155.797 235.062 156.578C235.354 157.359 235.5 158.255 235.5 159.266ZM232.266 164.266C232.286 163.974 232.302 163.693 232.312 163.422C232.323 163.151 232.328 162.885 232.328 162.625V162.438C231.953 162.292 231.573 162.182 231.188 162.109C230.812 162.026 230.464 161.969 230.141 161.938C229.818 161.896 229.542 161.875 229.312 161.875C229.094 161.865 228.948 161.859 228.875 161.859C228.281 161.88 227.766 161.99 227.328 162.188C226.891 162.385 226.526 162.635 226.234 162.938C225.953 163.229 225.74 163.557 225.594 163.922C225.458 164.286 225.391 164.646 225.391 165C225.391 165.802 225.583 166.411 225.969 166.828C226.365 167.234 226.938 167.438 227.688 167.438C228.188 167.438 228.661 167.349 229.109 167.172C229.557 166.995 229.974 166.76 230.359 166.469C230.755 166.167 231.109 165.828 231.422 165.453C231.745 165.068 232.026 164.672 232.266 164.266ZM251.234 167.047L254.688 168.328L249.031 169.422L249.094 166.375C248.844 166.802 248.557 167.214 248.234 167.609C247.911 167.995 247.547 168.339 247.141 168.641C246.745 168.943 246.302 169.182 245.812 169.359C245.323 169.547 244.792 169.641 244.219 169.641C243.406 169.62 242.635 169.438 241.906 169.094C241.188 168.75 240.552 168.26 240 167.625C239.458 166.979 239.026 166.193 238.703 165.266C238.391 164.328 238.234 163.26 238.234 162.062C238.234 160.604 238.406 159.328 238.75 158.234C239.094 157.141 239.562 156.229 240.156 155.5C240.75 154.771 241.443 154.224 242.234 153.859C243.036 153.495 243.891 153.312 244.797 153.312C245.714 153.312 246.562 153.51 247.344 153.906C248.135 154.292 248.781 154.812 249.281 155.469L249.344 151.781L245.531 150.344L253.25 148.969L251.234 167.047ZM244.703 167.656C244.734 167.656 244.839 167.646 245.016 167.625C245.193 167.604 245.411 167.552 245.672 167.469C245.932 167.375 246.219 167.24 246.531 167.062C246.854 166.885 247.172 166.641 247.484 166.328C247.807 166.005 248.115 165.604 248.406 165.125C248.698 164.646 248.948 164.062 249.156 163.375L249.25 158.281C249.094 157.906 248.896 157.547 248.656 157.203C248.427 156.859 248.167 156.557 247.875 156.297C247.594 156.026 247.276 155.812 246.922 155.656C246.578 155.49 246.214 155.406 245.828 155.406C245.109 155.406 244.495 155.583 243.984 155.938C243.484 156.292 243.068 156.781 242.734 157.406C242.411 158.031 242.172 158.771 242.016 159.625C241.87 160.479 241.797 161.406 241.797 162.406C241.797 163.146 241.859 163.839 241.984 164.484C242.109 165.12 242.292 165.672 242.531 166.141C242.771 166.609 243.073 166.979 243.438 167.25C243.802 167.521 244.224 167.656 244.703 167.656ZM268.781 153.797L269.391 167.234L272.203 168.547L265.797 169.734L266.094 165.156C265.802 165.771 265.469 166.359 265.094 166.922C264.719 167.474 264.297 167.964 263.828 168.391C263.359 168.807 262.844 169.141 262.281 169.391C261.729 169.641 261.13 169.766 260.484 169.766C259.714 169.766 259.036 169.63 258.453 169.359C257.87 169.089 257.38 168.719 256.984 168.25C256.589 167.771 256.286 167.214 256.078 166.578C255.88 165.932 255.781 165.245 255.781 164.516C255.781 163.839 255.833 163.135 255.938 162.406C256.042 161.677 256.182 160.958 256.359 160.25C256.547 159.531 256.766 158.839 257.016 158.172C257.276 157.495 257.557 156.87 257.859 156.297L254.562 155.531L260.75 153.422C260.354 154.474 260.047 155.484 259.828 156.453C259.62 157.411 259.464 158.266 259.359 159.016C259.245 159.891 259.172 160.703 259.141 161.453C259.141 162.422 259.208 163.26 259.344 163.969C259.479 164.667 259.667 165.25 259.906 165.719C260.146 166.177 260.432 166.521 260.766 166.75C261.099 166.969 261.464 167.078 261.859 167.078C262.464 167.078 263.005 166.917 263.484 166.594C263.964 166.271 264.385 165.839 264.75 165.297C265.125 164.745 265.443 164.104 265.703 163.375C265.974 162.646 266.193 161.875 266.359 161.062C266.536 160.25 266.667 159.422 266.75 158.578C266.833 157.734 266.88 156.922 266.891 156.141L263.5 153.797H268.781ZM285.391 168.109C285.391 168.443 285.302 168.729 285.125 168.969C284.958 169.208 284.75 169.401 284.5 169.547C284.25 169.703 283.99 169.812 283.719 169.875C283.448 169.948 283.214 169.984 283.016 169.984C282.797 169.984 282.552 169.948 282.281 169.875C282.01 169.812 281.755 169.703 281.516 169.547C281.276 169.401 281.073 169.208 280.906 168.969C280.74 168.729 280.656 168.443 280.656 168.109C280.656 167.755 280.74 167.453 280.906 167.203C281.073 166.953 281.276 166.75 281.516 166.594C281.755 166.427 282.01 166.307 282.281 166.234C282.552 166.161 282.797 166.125 283.016 166.125C283.214 166.125 283.448 166.161 283.719 166.234C283.99 166.307 284.25 166.427 284.5 166.594C284.75 166.75 284.958 166.953 285.125 167.203C285.302 167.453 285.391 167.755 285.391 168.109Z" fill="#F7F9FF"/>
<defs>
<filter id="filter0_dd_726_98" x="0" y="0" width="344" height="193" filterUnits="userSpaceOnUse" color-interpolation-filters="sRGB">
<feFlood flood-opacity="0" result="BackgroundImageFix"/>
<feColorMatrix in="SourceAlpha" type="matrix" values="0 0 0 0 0 0 0 0 0 0 0 0 0 0 0 0 0 0 127 0" result="hardAlpha"/>
<feOffset dx="5" dy="4"/>
<feGaussianBlur stdDeviation="2"/>
<feComposite in2="hardAlpha" operator="out"/>
<feColorMatrix type="matrix" values="0 0 0 0 0 0 0 0 0 0 0 0 0 0 0 0 0 0 0.25 0"/>
<feBlend mode="normal" in2="BackgroundImageFix" result="effect1_dropShadow_726_98"/>
<feColorMatrix in="SourceAlpha" type="matrix" values="0 0 0 0 0 0 0 0 0 0 0 0 0 0 0 0 0 0 127 0" result="hardAlpha"/>
<feOffset dx="-5" dy="-5"/>
<feGaussianBlur stdDeviation="2"/>
<feComposite in2="hardAlpha" operator="out"/>
<feColorMatrix type="matrix" values="0 0 0 0 0 0 0 0 0 0 0 0 0 0 0 0 0 0 0.25 0"/>
<feBlend mode="normal" in2="effect1_dropShadow_726_98" result="effect2_dropShadow_726_98"/>
<feBlend mode="normal" in="SourceGraphic" in2="effect2_dropShadow_726_98" result="shape"/>
</filter>
</defs>
</svg>
