<svg id="Layer_1" data-name="Layer 1" xmlns="http://www.w3.org/2000/svg" viewBox="0 0 580 631"><defs><style>.cls-1{fill:#0162a1;}.cls-2{fill:#41b981;}</style></defs><title>subha dental icon</title><path class="cls-1" d="M237.28,453.33c5.91-.43,11.89-.46,17.73-1.38,27-4.26,45.89-23.44,50.51-50.69,1.74-10.23,1.51-20.34-1.67-30.21a37.44,37.44,0,0,0-5.14-10.12c-4.64-6.51-12.17-7.4-18.8-2.89-6.42,4.36-10.78,10.46-14.71,16.93-7.11,11.67-11.82,24.41-16.63,37.13-3.07,8.11-6.92,15.93-10.7,23.75a24.53,24.53,0,0,1-4.88,6.23c-5.75,5.79-12.51,6.47-18.85,1.32a66.89,66.89,0,0,1-11.49-11.81c-12.56-16.94-21-36.12-29.31-55.35-10.31-23.95-18.87-48.47-23.16-74.33-2.55-15.42-3.26-30.85-.4-46.27,5-26.71,20.37-45.47,44.4-57.49,14-7,28.95-11,44.31-13.53,25.07-4.17,50.31-4.43,75.61-3.25A50.17,50.17,0,0,1,325,182.86c-2.74.61-5.48,1.24-8.23,1.82-24.31,5.18-48.51,10.79-72,19.07-11.74,4.15-23,9.22-33.26,16.53-16.93,12.09-24.7,28.86-25.83,49.22-.89,15.84,1.27,31.41,4.39,46.83,5.12,25.32,11.4,50.36,20,74.74a102.15,102.15,0,0,0,9.63,19.25c3,4.9,7.59,4.75,10.7-.18a86.89,86.89,0,0,0,7.51-15c6.6-17.1,13.61-34,25.89-47.94a53.65,53.65,0,0,1,13.87-11c8-4.45,17-2.58,23.9,3.51,7.86,7,12.16,16,15,25.81A83.19,83.19,0,0,1,317,412c-4.24,15-12.66,27.07-26.34,35-11.18,6.45-23.49,8.48-36.22,8.17-5.71-.13-11.4-.77-17.1-1.18Z"/><path class="cls-2" d="M431.87,271.93h0Z"/><path class="cls-2" d="M432.85,260.8a2.57,2.57,0,0,1-.31,1.15c-5,8.75-29.32,4.34-41,1.05-3.55-1-7.74-2.82-10.55-6-9.5-10.78-16.88-19.27-34.44-18.54a169.5,169.5,0,0,0-38.25,6.4c-27.11,7.47-53,18.2-78.71,29.49-4.24,1.86-8.49,3.66-12.74,5.49l-.34-.66c.74-.51,1.44-1.07,2.21-1.52,31.9-19.11,63.93-38,98-53.1,19.55-8.68,39.5-16.23,60.83-19.27,8.23-1.17,16.5-1.56,24.72.32,12.06,2.75,20.43,9.94,25.42,21.16C432.54,237.69,433.34,249.18,432.85,260.8Z"/><path class="cls-2" d="M348.24,429.93a13.77,13.77,0,0,1-2.41,1.85l-.07.05C340.71,435.32,329.1,442.51,322,444a78.51,78.51,0,0,1-13,2c-.69,0-.9-.32-.72-.95,2.92-2.31,5.45-4.25,7.88-6.31a119.71,119.71,0,0,0,17.94-19.26c.61,2.66,4,15.25,13.9,10.52C348.16,429.92,348.24,429.9,348.24,429.93Z"/><path class="cls-2" d="M367.93,410.59A157,157,0,0,1,351.75,427c-4.71-.28-13.69-8.13-15.45-10.53,2.22-3.06,4.33-6.21,6.36-9.4,1.15-1.81,2.29-3.64,3.4-5.47l.49-.62S357.14,420.25,367.93,410.59Z"/><path class="cls-2" d="M381.77,393.05q-5.85,8.16-12.44,15.89c-5.08-.67-18.46-7.64-21.47-10.3l.28-.48q4.56-7.7,8.62-15.61v0l.19-.26S371.47,400.63,381.77,393.05Z"/><path class="cls-2" d="M395.34,372.16q-3.54,6-7.39,11.89-1.43,2.19-2.9,4.35l0,0c-.36.53-.72,1.05-1.09,1.57-4.79,0-21.34-7-25.85-10.05.84-1.66,1.66-3.32,2.44-5q3.18-6.63,6-13.39C369.52,364.83,385.32,381,395.34,372.16Z"/><path class="cls-2" d="M406.13,351.93c-.43.9-.88,1.79-1.32,2.69l-.17.31c-1.17,2.38-2.39,4.73-3.64,7.07a.42.42,0,0,1,0,.1q-2,3.72-4.07,7.38c-5.57-.3-23.95-7.25-29.38-10.38.34-.87.69-1.74,1-2.62,1-2.61,2-5.22,2.93-7.86h0c.87-2.47,1.71-4.94,2.5-7.44l0-.08c.43-1,.68-1.68.68-1.68S393.92,359.43,406.13,351.93Z"/><path class="cls-2" d="M416.29,328.65l0,.08c-.14.36-.28.72-.43,1.08Q415,332,414,334.24h0q-2.87,6.94-6,13.72c-7-.6-29.65-9.43-32.5-11.76.08-.25.15-.5.22-.75h0c.27-1.45,1.41-4.3,2-7.32a0,0,0,0,0,0,0l.09-.34q.79-3,1.5-6.09c.47-2,.91-4,1.33-6C384.79,319.38,405.7,337.53,416.29,328.65Z"/><path class="cls-2" d="M425.91,300.11c-.38,1.41-.78,2.8-1.19,4.2-2,6.65-4.21,13.23-6.67,19.75-7.12-.08-33.09-9.19-36.74-11.41.61-3.1,1.16-6.21,1.65-9.35q.23-1.44.42-2.88c.39-2.71.7-5.42.92-8.15h0c0-.2,0-.4.05-.6C389.93,295.19,416.77,311.25,425.91,300.11Z"/><path class="cls-2" d="M431.05,275a179.25,179.25,0,0,1-4.35,22.11c-7.72.16-35.84-6.36-42.14-8.71a87.07,87.07,0,0,0-.88-18.15h0c-.08-.51-.17-1-.26-1.53-.14-.77-.29-1.52-.45-2.26C388.88,269.21,420.13,283.15,431.05,275Z"/><path class="cls-2" d="M221.51,291.2s49,29.42,84.43-13a4.41,4.41,0,0,0-3.12-7.3h-.15C297.59,270.91,279.84,303.88,221.51,291.2Z"/></svg>