<svg id="Layer_1" data-name="Layer 1" xmlns="http://www.w3.org/2000/svg" viewBox="0 0 264 114"><defs><style>.cls-1{fill:#175f9a;}.cls-2{fill:#0162a1;}.cls-3{fill:#41b981;}</style></defs><title>DENTAL SVG</title><path class="cls-1" d="M106.39,81.7a4.26,4.26,0,0,1-.67,2.33,4.46,4.46,0,0,1-2,1.62,7.36,7.36,0,0,1-3.06.59,6.91,6.91,0,0,1-3.49-.8,4.78,4.78,0,0,1-1.59-1.54A3.48,3.48,0,0,1,95,82a1.26,1.26,0,0,1,.37-.91,1.23,1.23,0,0,1,.93-.37,1.12,1.12,0,0,1,.77.29,2.29,2.29,0,0,1,.55.87,5.47,5.47,0,0,0,.59,1.14,2.39,2.39,0,0,0,.89.76,3.31,3.31,0,0,0,1.52.3,3.43,3.43,0,0,0,2.09-.6,1.8,1.8,0,0,0,.81-1.5,1.59,1.59,0,0,0-.44-1.16,2.79,2.79,0,0,0-1.12-.68c-.46-.15-1.07-.32-1.84-.5a13.84,13.84,0,0,1-2.59-.84,4.17,4.17,0,0,1-1.65-1.32,3.47,3.47,0,0,1-.61-2.07,3.56,3.56,0,0,1,.65-2.1,4,4,0,0,1,1.86-1.41,7.63,7.63,0,0,1,2.87-.5,7,7,0,0,1,2.28.33,4.78,4.78,0,0,1,1.6.87,3.71,3.71,0,0,1,.93,1.14,2.65,2.65,0,0,1,.29,1.16,1.4,1.4,0,0,1-.36.93,1.18,1.18,0,0,1-.92.42,1.06,1.06,0,0,1-.75-.25,3.44,3.44,0,0,1-.57-.82,3.69,3.69,0,0,0-.93-1.26,2.71,2.71,0,0,0-1.76-.46,3,3,0,0,0-1.81.5A1.41,1.41,0,0,0,98,75.17a1.21,1.21,0,0,0,.23.74,2,2,0,0,0,.65.54,4,4,0,0,0,.83.35c.28.09.74.21,1.38.37a21.86,21.86,0,0,1,2.2.63,6.67,6.67,0,0,1,1.67.83A3.51,3.51,0,0,1,106,79.86,3.94,3.94,0,0,1,106.39,81.7Z"/><path class="cls-1" d="M108.87,80.07V73.19a1.93,1.93,0,0,1,.39-1.32,1.35,1.35,0,0,1,1-.44,1.37,1.37,0,0,1,1.07.44,1.88,1.88,0,0,1,.4,1.32v7a6.43,6.43,0,0,0,.27,2,2.34,2.34,0,0,0,.95,1.25,3.53,3.53,0,0,0,1.91.44,2.85,2.85,0,0,0,2.4-.9,4.42,4.42,0,0,0,.71-2.74v-7.1a1.93,1.93,0,0,1,.39-1.32,1.34,1.34,0,0,1,1-.44,1.38,1.38,0,0,1,1.06.44,1.88,1.88,0,0,1,.41,1.32v6.88a10.16,10.16,0,0,1-.33,2.81,4.38,4.38,0,0,1-1.23,2,4.88,4.88,0,0,1-1.82,1.05,7.68,7.68,0,0,1-2.42.34,9.86,9.86,0,0,1-2.84-.36,4.63,4.63,0,0,1-2-1.1,4.43,4.43,0,0,1-1.1-1.92A9.52,9.52,0,0,1,108.87,80.07Z"/><path class="cls-1" d="M130.16,86h-4.38a1.82,1.82,0,0,1-1.35-.42,1.93,1.93,0,0,1-.41-1.35V73.45a1.86,1.86,0,0,1,.42-1.36,1.82,1.82,0,0,1,1.34-.41h4.64a11.5,11.5,0,0,1,1.78.12,3.83,3.83,0,0,1,1.34.49,3.47,3.47,0,0,1,.9.77,3.51,3.51,0,0,1,.6,1,3.38,3.38,0,0,1,.2,1.19,3.28,3.28,0,0,1-2.14,3.14,3.5,3.5,0,0,1,2.82,3.5,3.92,3.92,0,0,1-.62,2.16,3.64,3.64,0,0,1-1.66,1.42,5.3,5.3,0,0,1-1.5.39A14.54,14.54,0,0,1,130.16,86Zm-3.24-12.14v3.71h2.66a5.18,5.18,0,0,0,1.67-.21,1.62,1.62,0,0,0,.91-.78,1.78,1.78,0,0,0,.24-.92,1.42,1.42,0,0,0-.77-1.44,5.82,5.82,0,0,0-2.35-.36Zm3,5.79h-3v4.17H130c2,0,2.94-.7,2.94-2.11a1.75,1.75,0,0,0-.76-1.58A4.35,4.35,0,0,0,129.94,79.64Z"/><path class="cls-1" d="M141.35,73.19v4.1h6.26v-4.1a1.93,1.93,0,0,1,.39-1.32,1.35,1.35,0,0,1,1-.44,1.38,1.38,0,0,1,1.06.44,1.88,1.88,0,0,1,.41,1.32V84.47a1.92,1.92,0,0,1-.41,1.33,1.41,1.41,0,0,1-1.06.44,1.31,1.31,0,0,1-1-.45,1.93,1.93,0,0,1-.39-1.32V79.65h-6.26v4.82a1.92,1.92,0,0,1-.41,1.33,1.41,1.41,0,0,1-1.06.44,1.31,1.31,0,0,1-1-.45,1.93,1.93,0,0,1-.39-1.32V73.19a2,2,0,0,1,.38-1.32,1.34,1.34,0,0,1,1-.44,1.38,1.38,0,0,1,1.06.44A1.88,1.88,0,0,1,141.35,73.19Z"/><path class="cls-1" d="M162.78,84.37l-.68-1.8h-5.82l-.68,1.84a6.35,6.35,0,0,1-.69,1.45,1.1,1.1,0,0,1-.93.38,1.38,1.38,0,0,1-1-.4,1.23,1.23,0,0,1-.42-.91,1.9,1.9,0,0,1,.1-.61c.06-.21.17-.5.32-.87l3.66-9.29c.1-.27.23-.59.38-1a5,5,0,0,1,.46-.93,1.9,1.9,0,0,1,.66-.6,2,2,0,0,1,1-.23,2.07,2.07,0,0,1,1,.23,1.85,1.85,0,0,1,.65.59,3.66,3.66,0,0,1,.42.78c.12.28.26.64.44,1.11l3.74,9.24a4.69,4.69,0,0,1,.44,1.53,1.27,1.27,0,0,1-.42.91,1.34,1.34,0,0,1-1,.42,1.16,1.16,0,0,1-.58-.13,1.11,1.11,0,0,1-.41-.33,3.15,3.15,0,0,1-.36-.64C163,84.85,162.87,84.59,162.78,84.37Zm-5.74-4h4.28l-2.16-5.91Z"/><path class="cls-1" d="M174.8,71.68h3.78a10.26,10.26,0,0,1,2.53.27A4.56,4.56,0,0,1,183,73q2.24,1.9,2.23,5.82a11.45,11.45,0,0,1-.22,2.35,7,7,0,0,1-.69,1.92,6.14,6.14,0,0,1-1.21,1.53,5,5,0,0,1-1.26.83,6.2,6.2,0,0,1-1.46.44,12,12,0,0,1-1.78.12h-3.78a2.38,2.38,0,0,1-1.19-.24,1.09,1.09,0,0,1-.52-.67A4.38,4.38,0,0,1,173,84V73.45a1.52,1.52,0,0,1,1.77-1.77ZM175.93,74v9.72h2.2c.48,0,.85,0,1.13,0a3.59,3.59,0,0,0,.85-.2,2.3,2.3,0,0,0,.76-.44c1-.82,1.45-2.23,1.45-4.23a6.23,6.23,0,0,0-.64-3.18,2.83,2.83,0,0,0-1.57-1.34,7.88,7.88,0,0,0-2.27-.29Z"/><path class="cls-1" d="M197.25,73.91h-6.54v3.52h6a1.43,1.43,0,0,1,1,.3,1,1,0,0,1,.33.78,1,1,0,0,1-.33.8,1.4,1.4,0,0,1-1,.31h-6v4.07h6.76a1.43,1.43,0,0,1,1,.32,1.17,1.17,0,0,1,0,1.67,1.48,1.48,0,0,1-1,.31h-7.88a1.52,1.52,0,0,1-1.78-1.77V73.45a2.35,2.35,0,0,1,.19-1,1.15,1.15,0,0,1,.58-.57,2.44,2.44,0,0,1,1-.18h7.66a1.53,1.53,0,0,1,1,.3,1.07,1.07,0,0,1,.33.81,1,1,0,0,1-.33.81A1.48,1.48,0,0,1,197.25,73.91Z"/><path class="cls-1" d="M204.93,73.17l5.58,8.44V73.09a1.89,1.89,0,0,1,.35-1.24,1.21,1.21,0,0,1,1-.42,1.23,1.23,0,0,1,1,.42,1.84,1.84,0,0,1,.36,1.24V84.35q0,1.89-1.56,1.89a1.94,1.94,0,0,1-.7-.12,1.71,1.71,0,0,1-.59-.35,3.56,3.56,0,0,1-.51-.57c-.15-.22-.31-.44-.46-.67l-5.44-8.34v8.39a1.82,1.82,0,0,1-.38,1.24,1.27,1.27,0,0,1-1,.42,1.24,1.24,0,0,1-1-.43,1.79,1.79,0,0,1-.37-1.23v-11a3,3,0,0,1,.16-1.1,1.62,1.62,0,0,1,.61-.72,1.66,1.66,0,0,1,.93-.28,1.55,1.55,0,0,1,1.16.47,3.53,3.53,0,0,1,.43.56C204.62,72.69,204.78,72.92,204.93,73.17Z"/><path class="cls-1" d="M225.64,74.07h-3.16v10.4a1.89,1.89,0,0,1-.4,1.33,1.35,1.35,0,0,1-1,.44,1.37,1.37,0,0,1-1-.44,1.92,1.92,0,0,1-.41-1.33V74.07h-3.16a1.6,1.6,0,0,1-1.11-.33,1.21,1.21,0,0,1,0-1.74,1.59,1.59,0,0,1,1.09-.32h9.21a1.61,1.61,0,0,1,1.12.33,1.1,1.1,0,0,1,.37.87,1.08,1.08,0,0,1-.37.86A1.65,1.65,0,0,1,225.64,74.07Z"/><path class="cls-1" d="M236.75,84.37l-.69-1.8h-5.82l-.68,1.84a6.44,6.44,0,0,1-.68,1.45,1.1,1.1,0,0,1-.93.38,1.39,1.39,0,0,1-1-.4,1.23,1.23,0,0,1-.42-.91,2.22,2.22,0,0,1,.1-.61c.07-.21.17-.5.32-.87l3.66-9.29c.11-.27.23-.59.38-1a5,5,0,0,1,.47-.93,1.87,1.87,0,0,1,.65-.6,2.05,2.05,0,0,1,1-.23,2.08,2.08,0,0,1,1,.23,1.94,1.94,0,0,1,.65.59,3.66,3.66,0,0,1,.42.78c.11.28.26.64.43,1.11l3.74,9.24a4.44,4.44,0,0,1,.44,1.53,1.25,1.25,0,0,1-.41.91,1.36,1.36,0,0,1-1,.42,1.24,1.24,0,0,1-1-.46,2.76,2.76,0,0,1-.35-.64C237,84.85,236.84,84.59,236.75,84.37Zm-5.74-4h4.27l-2.15-5.91Z"/><path class="cls-1" d="M244.81,73.19V83.61h5.88a1.54,1.54,0,0,1,1.08.34,1.17,1.17,0,0,1,0,1.72,1.65,1.65,0,0,1-1.09.32h-7a1.52,1.52,0,0,1-1.78-1.77v-11a1.93,1.93,0,0,1,.4-1.32,1.34,1.34,0,0,1,1-.44,1.38,1.38,0,0,1,1.06.44A1.88,1.88,0,0,1,244.81,73.19Z"/><path class="cls-2" d="M42.07,93.59c1.6-.12,3.22-.12,4.8-.37A16,16,0,0,0,60.53,79.51a17,17,0,0,0-.45-8.18,10.65,10.65,0,0,0-1.39-2.73,3.49,3.49,0,0,0-5.09-.78,14.12,14.12,0,0,0-4,4.58,59.88,59.88,0,0,0-4.5,10c-.83,2.19-1.87,4.31-2.89,6.42a6.9,6.9,0,0,1-1.32,1.69,3.49,3.49,0,0,1-5.1.35,18.41,18.41,0,0,1-3.11-3.19c-3.39-4.58-5.68-9.77-7.92-15a86.84,86.84,0,0,1-6.27-20.1,36.07,36.07,0,0,1-.11-12.52c1.35-7.22,5.51-12.3,12-15.55a42,42,0,0,1,12-3.66A96.51,96.51,0,0,1,62.85,20a13.51,13.51,0,0,1,3,.41l-2.23.49a155.91,155.91,0,0,0-19.47,5.16,35.51,35.51,0,0,0-9,4.47c-4.57,3.27-6.68,7.8-7,13.31a50,50,0,0,0,1.18,12.67,151.69,151.69,0,0,0,5.41,20.21A27.25,27.25,0,0,0,37.32,82c.81,1.32,2.06,1.28,2.9,0a24.53,24.53,0,0,0,2-4.07c1.78-4.63,3.68-9.2,7-13a14.6,14.6,0,0,1,3.75-3,5.51,5.51,0,0,1,6.46,1,14.24,14.24,0,0,1,4.06,7,22.52,22.52,0,0,1,.11,12.58,15.25,15.25,0,0,1-7.13,9.46,18.33,18.33,0,0,1-9.79,2.21c-1.55,0-3.09-.21-4.63-.32Z"/><path class="cls-3" d="M72.08,87.26a3.52,3.52,0,0,1-.65.5h0c-1.36,1-4.5,2.89-6.43,3.3a21.94,21.94,0,0,1-3.51.54c-.19,0-.24-.09-.2-.26.79-.62,1.48-1.15,2.14-1.71a32.3,32.3,0,0,0,4.85-5.21c.16.72,1.09,4.13,3.76,2.85C72.06,87.26,72.08,87.25,72.08,87.26Z"/><path class="cls-3" d="M95,41.52a.73.73,0,0,1-.09.31C93.54,44.19,87,43,83.8,42.11a6,6,0,0,1-2.86-1.62c-2.57-2.92-4.56-5.21-9.31-5A46.47,46.47,0,0,0,61.28,37.2a157.16,157.16,0,0,0-21.29,8l-3.44,1.49a1.51,1.51,0,0,1-.09-.18c.2-.14.38-.29.59-.41,8.63-5.17,17.29-10.28,26.51-14.37A62.56,62.56,0,0,1,80,26.5a18.35,18.35,0,0,1,6.69.09,9.49,9.49,0,0,1,6.87,5.72A20.17,20.17,0,0,1,95,41.52Z"/><path class="cls-3" d="M77.41,82A41.76,41.76,0,0,1,73,86.47c-1.27-.07-3.7-2.2-4.18-2.84.6-.83,1.17-1.68,1.72-2.55.31-.49.62-1,.92-1.48a1.59,1.59,0,0,0,.13-.16S74.49,84.64,77.41,82Z"/><path class="cls-3" d="M81.15,77.29q-1.58,2.2-3.36,4.29A19,19,0,0,1,72,78.8s0-.09.07-.13q1.24-2.08,2.34-4.22h0l0-.07S78.37,79.34,81.15,77.29Z"/><path class="cls-3" d="M84.82,71.64c-.64,1.09-1.3,2.16-2,3.21-.25.4-.52.79-.78,1.18h0l-.29.42c-1.3,0-5.78-1.9-7-2.72q.35-.67.66-1.35C76,71.19,76.52,70,77,68.77,77.84,69.65,82.11,74,84.82,71.64Z"/><path class="cls-3" d="M87.74,66.16l-.36.73a.59.59,0,0,1,0,.08c-.32.65-.65,1.28-1,1.92,0,0,0,0,0,0-.36.67-.72,1.34-1.1,2-1.51-.08-6.48-2-7.95-2.81.1-.23.19-.47.28-.71.28-.7.54-1.41.8-2.12h0c.23-.67.46-1.34.67-2v0c.12-.28.18-.45.18-.45S84.44,68.19,87.74,66.16Z"/><path class="cls-3" d="M90.49,59.87v0l-.12.29c-.15.4-.32.8-.48,1.2h0c-.52,1.25-1.06,2.49-1.63,3.71a35.36,35.36,0,0,1-8.79-3.18l.06-.2h0c.07-.4.38-1.17.55-2h0l0-.09c.14-.55.27-1.1.4-1.65s.25-1.08.36-1.63C82,57.36,87.62,62.27,90.49,59.87Z"/><path class="cls-3" d="M93.09,52.15c-.1.38-.21.75-.32,1.13-.53,1.8-1.14,3.58-1.81,5.35C89,58.6,82,56.14,81,55.54c.16-.84.31-1.68.44-2.53l.12-.78c.1-.73.19-1.46.25-2.2h0a.92.92,0,0,1,0-.16C83.36,50.82,90.62,55.16,93.09,52.15Z"/><path class="cls-3" d="M94.48,45.36a48.62,48.62,0,0,1-1.18,6c-2.08,0-9.69-1.72-11.39-2.36a23.82,23.82,0,0,0-.24-4.91h0c0-.14,0-.27-.07-.41l-.12-.61C83.07,43.79,91.53,47.56,94.48,45.36Z"/><path class="cls-3" d="M42.77,50.89s13.27,8,22.84-3.51a1.2,1.2,0,0,0-.84-2h0C63.35,45.4,58.55,54.32,42.77,50.89Z"/></svg>