<svg width="80" height="12" viewBox="0 0 80 12" fill="none" xmlns="http://www.w3.org/2000/svg">
<path d="M6 1L7.545 4.29127L11 4.82229L8.5 7.38275L9.09 11L6 9.29127L2.91 11L3.5 7.38275L1 4.82229L4.455 4.29127L6 1Z" fill="#F9AD1A" stroke="#F9AD1A" stroke-width="2" stroke-linecap="round" stroke-linejoin="round"/>
<path d="M23 1L24.545 4.29127L28 4.82229L25.5 7.38275L26.09 11L23 9.29127L19.91 11L20.5 7.38275L18 4.82229L21.455 4.29127L23 1Z" fill="#F9AD1A" stroke="#F9AD1A" stroke-width="2" stroke-linecap="round" stroke-linejoin="round"/>
<path d="M40 1L41.545 4.29127L45 4.82229L42.5 7.38275L43.09 11L40 9.29127L36.91 11L37.5 7.38275L35 4.82229L38.455 4.29127L40 1Z" fill="#F9AD1A" stroke="#F9AD1A" stroke-width="2" stroke-linecap="round" stroke-linejoin="round"/>
<path d="M57 1L58.545 4.29127L62 4.82229L59.5 7.38275L60.09 11L57 9.29127L53.91 11L54.5 7.38275L52 4.82229L55.455 4.29127L57 1Z" fill="#F9AD1A" stroke="#F9AD1A" stroke-width="2" stroke-linecap="round" stroke-linejoin="round"/>
<path d="M74 1L75.545 4.29127L79 4.82229L76.5 7.38275L77.09 11L74 9.29127L70.91 11L71.5 7.38275L69 4.82229L72.455 4.29127L74 1Z" fill="#F9AD1A" stroke="#F9AD1A" stroke-width="2" stroke-linecap="round" stroke-linejoin="round"/>
</svg>
